<svg width="360" height="240" viewBox="0 0 360 240" fill="none" xmlns="http://www.w3.org/2000/svg">
<g clip-path="url(#clip0_3_1195)">
<path d="M184.903 35.6089C185.118 36.2275 185.465 36.7915 185.921 37.261C186.376 37.7306 186.929 38.0944 187.54 38.3267C188.151 38.559 188.806 38.6543 189.458 38.6057C190.11 38.5571 190.743 38.366 191.313 38.0457L230.09 50.5083L242.924 40.4198L192.907 31.6449C192.306 30.7209 191.388 30.0497 190.327 29.7585C189.265 29.4673 188.134 29.5764 187.147 30.065C186.161 30.5536 185.387 31.3879 184.974 32.4096C184.56 33.4314 184.535 34.5697 184.903 35.6089Z" fill="#FFB6B6"/>
<path d="M256.727 52.2636C256.727 52.2636 256.375 51.4003 251.735 53.2787C245.976 55.6103 215.314 54.0516 213.615 45.6751C213.072 46.2362 212.359 46.6004 211.587 46.7105C210.815 46.8206 210.029 46.6703 209.351 46.2833L214.145 35.7422C216.64 34.9431 217.996 34.3518 218.157 35.3699L225.659 34.9277L256.04 40.0519L256.88 50.5596L256.727 52.2636Z" fill="#F2F2F2"/>
<path d="M247.172 41.6954L262.26 40.3867L276.405 46.8652L284.348 156.955L253.177 142.512L239.804 146.219L247.172 41.6954Z" fill="#F2F2F2"/>
<path d="M284.292 233.83L278.569 233.83L275.847 211.712L284.293 211.713L284.292 233.83Z" fill="#FFB6B6"/>
<path d="M285.752 239.389L267.298 239.388V239.154C267.298 237.246 268.055 235.415 269.402 234.066C270.749 232.716 272.576 231.958 274.481 231.958H274.481L277.852 229.395L284.141 231.958L285.752 231.958L285.752 239.389Z" fill="#2F2E41"/>
<path d="M262.114 230.217L256.532 231.48L249.013 210.506L257.253 208.642L262.114 230.217Z" fill="#FFB6B6"/>
<path d="M264.76 235.317L246.76 239.389L246.708 239.161C246.289 237.299 246.625 235.346 247.642 233.733C248.659 232.119 250.274 230.976 252.132 230.556L252.133 230.556L254.857 227.312L261.555 228.424L263.127 228.068L264.76 235.317Z" fill="#2F2E41"/>
<path d="M291.541 98.6154C294.224 106.724 293.94 115.525 290.896 124.971L289.594 178.157C291.746 180.529 292.075 201.757 288.761 208.684C284.335 217.934 288.405 219.171 285.276 225.307H276.202L272.008 197.506L271.709 174.971C270.504 172.112 271.493 162.05 271.493 162.05L271.145 141.185L254.783 177.735C262.196 184.093 261.528 204.628 261.651 213.737L264.081 224.484L252.913 225.485L247.984 210.909L242.442 201.927C239.619 186.012 238.781 174.329 241.189 169.556L257.614 108.328L291.541 98.6154Z" fill="#2F2E41"/>
<path d="M292.703 95.9092L291.208 92.9116C289.376 81.5444 287.567 70.9422 290.025 61.4055C290.179 53.0802 287.611 45.2589 280.48 40.988L277.263 39.0603L275.635 34.922L260.641 35.2889L260.596 40.7138L255.226 49.2956V49.3309L255.561 96.0286L257.044 100.848L254.807 106.454L255.994 110.031L285.555 105.296L288.992 104.743C289.389 104.616 289.772 104.448 290.135 104.243C291.369 103.557 292.336 102.475 292.88 101.171C292.911 101.095 292.937 101.025 292.964 100.949C293.196 100.341 293.33 99.6991 293.361 99.0483C293.415 97.9627 293.188 96.8816 292.703 95.9092Z" fill="#3F3D56"/>
<path opacity="0.2" d="M293.361 99.0483C293.33 99.6991 293.196 100.341 292.964 100.949L290.135 104.243C289.772 104.448 289.389 104.616 288.992 104.743L285.555 105.296L290.528 95.9269L279.598 71.9503L293.361 99.0483Z" fill="black"/>
<path d="M61.1199 195.919C57.6468 195.955 54.1764 195.714 50.7413 195.199C47.5428 194.657 45.921 193.887 45.921 192.911L45.9221 192.893L51.8889 147.376L48.8838 138.745C48.7576 138.382 48.7204 137.995 48.7752 137.615C48.8301 137.235 48.9753 136.874 49.1988 136.562C49.4223 136.251 49.7173 135.997 50.0591 135.824C50.4008 135.651 50.7792 135.562 51.1623 135.566L70.9244 135.772C71.3005 135.776 71.6703 135.869 72.0037 136.043C72.3371 136.218 72.6247 136.469 72.843 136.775C73.0613 137.082 73.2041 137.436 73.2599 137.809C73.3156 138.182 73.2826 138.562 73.1637 138.92L70.3508 147.375L76.3177 192.893C76.3189 195.286 66.765 195.919 61.1199 195.919Z" fill="#F2F2F2"/>
<path d="M59.5096 189.512H49.8564V190.056H59.5096V189.512Z" fill="#CCCCCC"/>
<path d="M59.5096 186.249H49.8564V186.793H59.5096V186.249Z" fill="#CCCCCC"/>
<path d="M59.5096 182.985H49.8564V183.529H59.5096V182.985Z" fill="#CCCCCC"/>
<path d="M59.5096 179.722H49.8564V180.266H59.5096V179.722Z" fill="#CCCCCC"/>
<path d="M59.5096 176.459H49.8564V177.003H59.5096V176.459Z" fill="#CCCCCC"/>
<path d="M147.971 195.919C144.498 195.955 141.027 195.714 137.592 195.199C134.394 194.657 132.772 193.887 132.772 192.911L132.773 192.893L138.74 147.376L135.735 138.745C135.609 138.382 135.572 137.995 135.626 137.615C135.681 137.235 135.826 136.874 136.05 136.562C136.273 136.251 136.568 135.997 136.91 135.824C137.252 135.651 137.63 135.562 138.013 135.566L157.776 135.772C158.152 135.776 158.521 135.869 158.855 136.043C159.188 136.218 159.476 136.469 159.694 136.775C159.912 137.082 160.055 137.436 160.111 137.809C160.167 138.182 160.134 138.562 160.015 138.92L157.202 147.375L163.169 192.893C163.17 195.286 153.616 195.919 147.971 195.919Z" fill="#F2F2F2"/>
<path d="M146.361 189.512H136.708V190.056H146.361V189.512Z" fill="#CCCCCC"/>
<path d="M146.361 186.249H136.708V186.793H146.361V186.249Z" fill="#CCCCCC"/>
<path d="M146.361 182.985H136.708V183.529H146.361V182.985Z" fill="#CCCCCC"/>
<path d="M146.361 179.722H136.708V180.266H146.361V179.722Z" fill="#CCCCCC"/>
<path d="M146.361 176.459H136.708V177.003H146.361V176.459Z" fill="#CCCCCC"/>
<path d="M107.26 195.919C103.786 195.955 100.316 195.714 96.8809 195.199C93.6824 194.657 92.0606 193.887 92.0606 192.911L92.0618 192.893L98.0286 147.376L95.0235 138.745C94.8973 138.382 94.8601 137.995 94.9149 137.615C94.9697 137.235 95.115 136.874 95.3384 136.562C95.5619 136.251 95.857 135.997 96.1987 135.824C96.5405 135.651 96.9189 135.562 97.302 135.566L117.064 135.772C117.44 135.776 117.81 135.869 118.143 136.043C118.477 136.218 118.764 136.469 118.983 136.775C119.201 137.082 119.344 137.436 119.4 137.809C119.455 138.182 119.422 138.562 119.303 138.92L116.49 147.375L122.457 192.893C122.459 195.286 112.905 195.919 107.26 195.919Z" fill="#F2F2F2"/>
<path d="M105.649 189.512H95.9961V190.056H105.649V189.512Z" fill="#CCCCCC"/>
<path d="M105.649 186.249H95.9961V186.793H105.649V186.249Z" fill="#CCCCCC"/>
<path d="M105.649 182.985H95.9961V183.529H105.649V182.985Z" fill="#CCCCCC"/>
<path d="M105.649 179.722H95.9961V180.266H105.649V179.722Z" fill="#CCCCCC"/>
<path d="M105.649 176.459H95.9961V177.003H105.649V176.459Z" fill="#CCCCCC"/>
<path d="M171.448 199.302H152.992V168.301H171.448C172.456 168.301 173.422 167.9 174.135 167.186C174.847 166.472 175.248 165.504 175.248 164.494C175.248 163.484 174.847 162.516 174.135 161.802C173.422 161.088 172.456 160.687 171.448 160.687H42.7997C41.792 160.687 40.8255 161.088 40.1129 161.802C39.4003 162.516 39 163.484 39 164.494C39 165.504 39.4003 166.472 40.1129 167.186C40.8255 167.9 41.792 168.301 42.7997 168.301H58.5415V199.302H42.7997C41.792 199.302 40.8255 199.703 40.1129 200.417C39.4003 201.131 39 202.099 39 203.109C39 204.118 39.4003 205.087 40.1129 205.801C40.8255 206.515 41.792 206.916 42.7997 206.916H171.448C171.947 206.916 172.442 206.818 172.903 206.627C173.365 206.436 173.784 206.156 174.137 205.802C174.491 205.449 174.771 205.029 174.962 204.567C175.153 204.104 175.252 203.609 175.252 203.109C175.252 202.608 175.153 202.113 174.962 201.651C174.771 201.189 174.491 200.769 174.137 200.415C173.784 200.062 173.365 199.781 172.903 199.59C172.442 199.399 171.947 199.301 171.448 199.302ZM66.141 199.302V168.301H145.393V199.302H66.141Z" fill="#CCCCCC"/>
<path d="M168.459 239.44C159.019 239.44 150.215 238.829 143.669 237.719C135.594 236.35 131.668 234.362 131.668 231.639L131.673 231.553L145.847 123.418L138.75 103.036C138.41 102.077 138.308 101.05 138.453 100.042C138.599 99.0351 138.987 98.0785 139.585 97.2555C140.168 96.4197 140.949 95.7415 141.858 95.2811C142.766 94.8208 143.775 94.5926 144.792 94.6169L191.783 95.1073C192.779 95.1176 193.758 95.3637 194.641 95.8254C195.524 96.2871 196.286 96.9513 196.864 97.764C197.442 98.5766 197.821 99.5147 197.968 100.502C198.116 101.489 198.029 102.497 197.714 103.443L191.071 123.41L205.247 231.555V231.597C205.249 234.532 200.805 236.616 191.66 237.968C182.677 239.297 172.443 239.44 168.459 239.44Z" fill="white"/>
<path d="M168.459 239.44C159.019 239.44 150.215 238.829 143.669 237.719C135.594 236.35 131.668 234.362 131.668 231.639L131.673 231.553L145.847 123.418L138.75 103.036C138.41 102.077 138.308 101.05 138.453 100.042C138.599 99.0351 138.987 98.0785 139.585 97.2555C140.168 96.4197 140.949 95.7415 141.858 95.2811C142.766 94.8208 143.775 94.5926 144.792 94.6169L191.783 95.1073C192.779 95.1176 193.758 95.3637 194.641 95.8254C195.524 96.2871 196.286 96.9513 196.864 97.764C197.442 98.5766 197.821 99.5147 197.968 100.502C198.116 101.489 198.029 102.497 197.714 103.443L191.071 123.41L205.247 231.555V231.597C205.249 234.532 200.805 236.616 191.66 237.968C182.677 239.297 172.443 239.44 168.459 239.44ZM144.663 95.909C143.872 95.9082 143.092 96.0988 142.391 96.4647C141.689 96.8305 141.086 97.3607 140.633 98.0102C140.158 98.665 139.849 99.4262 139.733 100.228C139.617 101.029 139.698 101.847 139.969 102.61L147.166 123.282L147.147 123.434L132.957 231.681C132.959 232.742 134.379 234.833 143.885 236.443C150.362 237.541 159.089 238.147 168.459 238.147C176.695 238.147 185.298 237.601 191.472 236.689C199.358 235.523 203.901 233.683 203.956 231.636L189.752 123.284L196.489 103.034C196.74 102.281 196.809 101.479 196.692 100.694C196.574 99.9082 196.273 99.1617 195.813 98.515C195.353 97.8683 194.747 97.3397 194.044 96.9723C193.341 96.6049 192.562 96.409 191.769 96.4007L144.772 95.9103C144.735 95.9093 144.699 95.909 144.663 95.909Z" fill="#3F3D56"/>
<path opacity="0.5" d="M195.246 218.408H141.673L150.165 160.871L150.397 159.285L153.935 135.332C154.151 133.87 155.83 135.005 157.017 134.129C164.387 128.691 171.845 128.534 179.368 133.775C180.531 134.585 182.138 133.637 182.355 135.039L186.071 159.065L186.431 161.389L195.246 218.408Z" fill="#FF6262"/>
<path d="M188.634 226.465H148.228C147.168 226.465 146.122 226.237 145.158 225.795C144.195 225.353 143.339 224.708 142.646 223.905C141.954 223.101 141.443 222.158 141.148 221.138C140.853 220.119 140.78 219.048 140.935 217.998L152.74 138.013C152.801 137.604 152.969 137.219 153.227 136.895C153.484 136.572 153.822 136.323 154.207 136.173C154.591 136.023 155.008 135.977 155.416 136.04C155.824 136.103 156.208 136.274 156.529 136.533C163.724 142.308 171.566 142.178 179.835 136.149C180.156 135.914 180.532 135.766 180.927 135.72C181.321 135.674 181.721 135.731 182.087 135.886C182.461 136.04 182.788 136.288 183.038 136.606C183.287 136.924 183.45 137.302 183.511 137.702L195.919 217.948C196.082 219.001 196.015 220.077 195.724 221.102C195.433 222.127 194.923 223.076 194.231 223.886C193.539 224.695 192.681 225.344 191.714 225.789C190.748 226.235 189.697 226.465 188.634 226.465L188.634 226.465Z" fill="#FF6262"/>
<path d="M172.375 217.088H149.418V218.382H172.375V217.088Z" fill="white"/>
<path d="M172.375 209.328H149.418V210.621H172.375V209.328Z" fill="white"/>
<path d="M172.375 201.567H149.418V202.861H172.375V201.567Z" fill="white"/>
<path d="M172.375 193.807H149.418V195.1H172.375V193.807Z" fill="white"/>
<path d="M172.375 186.046H149.418V187.34H172.375V186.046Z" fill="white"/>
<path d="M187.513 165.688C185.733 167.459 183.591 168.824 181.234 169.688C178.878 170.552 176.363 170.895 173.862 170.693C171.009 170.435 168.408 169.368 165.903 168.023C163.315 166.632 160.811 164.97 157.945 164.194C155.434 163.515 152.458 163.424 150.303 165.106C150.126 165.243 149.911 165.32 149.688 165.325C149.465 165.331 149.246 165.266 149.063 165.138L149.309 163.457C151.71 161.775 154.627 161.517 157.487 162.092C163.244 163.256 167.614 168.029 173.513 168.715C176.058 169.002 178.634 168.651 181.01 167.693C183.386 166.736 185.488 165.203 187.126 163.23L187.132 163.224L187.513 165.688Z" fill="white"/>
<path d="M320.421 239.474C320.422 239.543 320.408 239.612 320.382 239.675C320.355 239.739 320.317 239.797 320.268 239.846C320.219 239.895 320.161 239.934 320.097 239.96C320.034 239.987 319.965 240 319.896 240H39.5597C39.4205 240 39.2869 239.945 39.1884 239.846C39.0899 239.747 39.0346 239.613 39.0346 239.474C39.0346 239.334 39.0899 239.2 39.1884 239.102C39.2869 239.003 39.4205 238.948 39.5597 238.948H319.896C319.965 238.948 320.034 238.961 320.097 238.987C320.161 239.014 320.219 239.052 320.268 239.101C320.317 239.15 320.355 239.208 320.382 239.272C320.408 239.336 320.422 239.405 320.421 239.474Z" fill="#CCCCCC"/>
<path d="M262.175 40.369L277.263 39.0603L291.408 45.5388L299.351 155.629L268.181 141.185L254.807 144.893L262.175 40.369Z" fill="#F2F2F2"/>
<path d="M187.709 40.2333C189.171 40.2333 190.357 39.0456 190.357 37.5805C190.357 36.1154 189.171 34.9277 187.709 34.9277C186.247 34.9277 185.061 36.1154 185.061 37.5805C185.061 39.0456 186.247 40.2333 187.709 40.2333Z" fill="#FF6262"/>
<path d="M183.296 72.5087C184.759 72.5087 185.944 71.321 185.944 69.8559C185.944 68.3908 184.759 67.2031 183.296 67.2031C181.834 67.2031 180.649 68.3908 180.649 69.8559C180.649 71.321 181.834 72.5087 183.296 72.5087Z" fill="#FF6262"/>
<path d="M169.176 91.5202C170.638 91.5202 171.823 90.3325 171.823 88.8674C171.823 87.4023 170.638 86.2147 169.176 86.2147C167.713 86.2147 166.528 87.4023 166.528 88.8674C166.528 90.3325 167.713 91.5202 169.176 91.5202Z" fill="#FF6262"/>
<path d="M235.272 112.074V83.5964C235.273 83.02 235.501 82.4674 235.908 82.0598C236.315 81.6523 236.867 81.423 237.442 81.4224H258.907C259.482 81.423 260.034 81.6523 260.44 82.0598C260.847 82.4674 261.076 83.02 261.077 83.5964V112.074C261.076 112.65 260.847 113.203 260.44 113.61C260.034 114.018 259.482 114.247 258.907 114.248H237.442C236.867 114.247 236.315 114.018 235.908 113.61C235.501 113.203 235.273 112.65 235.272 112.074Z" fill="#E6E6E6"/>
<path d="M236.919 103.472V85.1645C236.919 84.6247 237.133 84.1072 237.514 83.7255C237.895 83.3438 238.412 83.1291 238.951 83.1285H257.398C257.937 83.1291 258.453 83.3438 258.834 83.7255C259.215 84.1072 259.43 84.6247 259.43 85.1645V110.505C259.43 111.045 259.215 111.563 258.834 111.944C258.453 112.326 257.937 112.541 257.398 112.541H245.97C243.57 112.539 241.27 111.582 239.573 109.882C237.876 108.182 236.921 105.877 236.919 103.472Z" fill="white"/>
<path d="M239.905 90.2727C239.906 89.7452 240.115 89.2395 240.488 88.8665C240.86 88.4935 241.365 88.2837 241.891 88.2832H254.688C255.215 88.2832 255.72 88.4928 256.092 88.8659C256.465 89.239 256.674 89.7451 256.674 90.2727C256.674 90.8004 256.465 91.3065 256.092 91.6796C255.72 92.0527 255.215 92.2623 254.688 92.2623H241.891C241.365 92.2617 240.86 92.0519 240.488 91.6789C240.115 91.306 239.906 90.8002 239.905 90.2727Z" fill="#E6E6E6"/>
<path d="M239.905 96.4625C239.906 95.935 240.115 95.4293 240.488 95.0563C240.86 94.6833 241.365 94.4735 241.891 94.473H254.688C255.215 94.473 255.72 94.6826 256.092 95.0557C256.465 95.4288 256.674 95.9349 256.674 96.4625C256.674 96.9902 256.465 97.4963 256.092 97.8694C255.72 98.2425 255.215 98.4521 254.688 98.4521H241.891C241.365 98.4515 240.86 98.2417 240.488 97.8687C240.115 97.4958 239.906 96.99 239.905 96.4625Z" fill="#E6E6E6"/>
<path d="M239.905 102.652C239.906 102.125 240.115 101.619 240.488 101.246C240.86 100.873 241.365 100.663 241.891 100.663H254.688C255.215 100.663 255.72 100.872 256.092 101.245C256.465 101.619 256.674 102.125 256.674 102.652C256.674 103.18 256.465 103.686 256.092 104.059C255.72 104.432 255.215 104.642 254.688 104.642H241.891C241.365 104.641 240.86 104.432 240.488 104.059C240.115 103.686 239.906 103.18 239.905 102.652Z" fill="#E6E6E6"/>
<path d="M252.758 116.987C253.362 116.736 253.904 116.357 254.346 115.874C254.788 115.391 255.119 114.817 255.315 114.193C255.511 113.568 255.569 112.908 255.483 112.258C255.397 111.609 255.17 110.987 254.819 110.435L270.382 96.2689L275.842 75.1078L266.152 74.3L263.19 90.9055L248.349 109.208C247.463 109.862 246.847 110.819 246.618 111.897C246.388 112.976 246.562 114.101 247.106 115.06C247.649 116.018 248.525 116.744 249.567 117.099C250.608 117.454 251.744 117.414 252.758 116.987V116.987Z" fill="#FFB6B6"/>
<path d="M277.335 55.9974C277.335 55.9974 279.697 56.0324 278.633 60.9319C277.782 64.8543 274.551 86.9276 271.972 91.8657C272.562 92.3761 272.966 93.0688 273.12 93.8346C273.274 94.6003 273.169 95.3957 272.822 96.0953L262.044 91.9055C261.105 89.4557 262.68 88.6941 263.685 88.4743L263.488 80.7897L265.033 61.2016L275.629 55.9417L277.335 55.9974Z" fill="#F2F2F2"/>
<path d="M280.51 19.7349C280.007 23.409 278.069 26.7328 275.122 28.976C272.174 31.2193 268.459 32.1984 264.791 31.6983C261.124 31.1982 257.805 29.2597 255.563 26.3089C253.321 23.358 252.34 19.6362 252.836 15.9611L252.862 15.7625C253.441 12.1368 255.419 8.88423 258.37 6.7065C261.32 4.52876 265.007 3.60037 268.634 4.12158C272.262 4.6428 275.54 6.57185 277.76 9.49262C279.981 12.4134 280.967 16.0918 280.506 19.7343L280.51 19.7349Z" fill="#FFB8B8"/>
<path d="M276.956 26.9417C277.673 25.4821 278.409 23.9151 278.208 22.3008C278.006 20.6866 276.426 19.1436 274.875 19.6233C273.947 19.9102 273.246 20.8281 272.276 20.8751C270.942 20.9398 270.177 19.4096 269.761 18.1374L268.07 12.9561C266.445 14.2245 264.561 15.118 262.553 15.5728C260.544 16.0276 258.46 16.0325 256.449 15.5872C254.878 15.2274 253.291 14.5259 252.37 13.2016C251.449 11.8774 251.454 9.8232 252.718 8.82182C253.338 8.33081 254.162 8.14425 254.754 7.62032C255.122 7.2953 255.375 6.86043 255.476 6.38006C255.578 5.8997 255.522 5.39937 255.318 4.9531C255.114 4.50684 254.771 4.13835 254.342 3.90218C253.912 3.666 253.418 3.57468 252.932 3.64173L257.192 3.10837L255.923 0.808705C256.837 1.53094 258.11 1.62807 259.256 1.42133C260.401 1.2146 261.481 0.741866 262.602 0.426606C267.983 -1.08686 274.238 1.54463 276.928 6.45404C277.976 6.10337 279.106 6.08007 280.167 6.38721C281.229 6.69435 282.172 7.31744 282.873 8.17392C284.013 9.62387 284.323 11.5588 284.367 13.4042C284.45 17.0429 283.658 20.6481 282.058 23.9157C281.6 24.9536 280.94 25.8904 280.119 26.6722C279.705 27.0598 279.212 27.352 278.674 27.5284C278.136 27.7048 277.565 27.761 277.003 27.6932" fill="#2F2E41"/>
</g>
<defs>
<clipPath id="clip0_3_1195">
<rect width="281.421" height="240" fill="white" transform="translate(39)"/>
</clipPath>
</defs>
</svg>
