<svg width="360" height="240" viewBox="0 0 360 240" fill="none" xmlns="http://www.w3.org/2000/svg">
<g clip-path="url(#clip0_3_1194)">
<path d="M297.561 239.562C297.561 239.62 297.55 239.677 297.528 239.73C297.506 239.783 297.474 239.832 297.433 239.872C297.392 239.913 297.344 239.945 297.291 239.967C297.237 239.989 297.18 240 297.123 240H63.4377C63.3217 240 63.2103 239.954 63.1282 239.872C63.0461 239.79 63 239.678 63 239.562C63 239.446 63.0461 239.335 63.1282 239.253C63.2103 239.171 63.3217 239.125 63.4377 239.125H297.123C297.18 239.124 297.237 239.136 297.291 239.158C297.344 239.179 297.392 239.212 297.433 239.252C297.474 239.293 297.506 239.341 297.528 239.395C297.55 239.448 297.561 239.505 297.561 239.562Z" fill="#CCCCCC"/>
<path d="M253.209 10.843C252.92 9.2373 252.206 7.73836 251.141 6.5025C249.627 4.77868 247.788 3.37006 245.729 2.35709C243.67 1.34412 241.431 0.746622 239.141 0.598723C236.851 0.450823 234.555 0.755414 232.383 1.49511C230.21 2.2348 228.205 3.3951 226.481 4.90977L226.334 5.04219C224.277 3.04777 221.769 1.57878 219.023 0.759743C216.277 -0.0592986 213.374 -0.204255 210.56 0.337161C207.746 0.878577 205.104 2.09041 202.858 3.86994C200.612 5.64947 198.828 7.94425 197.657 10.5598C196.582 12.9533 196.089 15.5676 196.218 18.1884C196.348 20.8093 197.097 23.3621 198.404 25.6376C198.99 26.6636 199.679 27.6273 200.46 28.5141C201.266 29.4337 223.013 53.6265 223.23 53.8693C223.256 53.8995 223.288 53.9236 223.324 53.9402C223.36 53.9567 223.4 53.9651 223.439 53.9649C223.447 53.9649 223.458 53.9612 223.469 53.9612C223.484 53.9611 223.499 53.9573 223.513 53.9502C223.585 53.9328 223.647 53.8879 223.686 53.8251L223.8 53.6375L223.936 53.4058L225.948 50.0438C231.528 40.719 239.051 31.9203 248.309 23.894C248.905 23.3763 249.458 22.8104 249.961 22.2019C251.942 19.8336 253.137 16.9078 253.382 13.8299C253.452 12.831 253.393 11.8272 253.209 10.843Z" fill="#FF6262"/>
<path d="M153.437 199.97L157.532 186.632C152.605 181.209 146.428 177.07 139.537 174.576C146.269 185.728 139.746 200.277 142.464 213.017C143.343 216.984 145.102 220.702 147.613 223.897C150.124 227.091 153.321 229.68 156.968 231.47L163.183 239.171C166.441 233.479 168.427 227.147 169.002 220.614C169.578 214.08 168.731 207.499 166.518 201.325C165.243 197.873 163.538 194.596 161.443 191.57C157.75 195.912 153.437 199.97 153.437 199.97Z" fill="#F2F2F2"/>
<path d="M130.917 201.675L128.634 187.91C121.805 185.253 114.431 184.304 107.151 185.144C118.15 192.124 118.8 208.055 126.915 218.245C129.47 221.404 132.703 223.948 136.375 225.687C140.047 227.427 144.063 228.317 148.126 228.294L157.123 232.414C157.501 225.866 156.454 219.314 154.056 213.209C151.657 207.105 147.964 201.593 143.23 197.053C140.549 194.532 137.561 192.36 134.337 190.586C132.968 196.119 130.917 201.675 130.917 201.675Z" fill="#F2F2F2"/>
<path d="M175.879 111.41L174.748 114.04L176.596 123.382L195.45 120.76L195.3 109.37L194.921 106.874L175.879 111.41Z" fill="#FFB6B6"/>
<path d="M166.138 232.477H170.298L172.277 216.433H166.138V232.477Z" fill="#FFB6B6"/>
<path d="M177.743 236.442L171.428 232.079V229.23L170.693 229.276L166.138 229.547L164.782 229.626L163.944 239.684H166.927L167.456 236.868L168.82 239.684H176.734C177.113 239.683 177.482 239.562 177.787 239.337C178.092 239.113 178.318 238.796 178.431 238.434C178.543 238.072 178.537 237.684 178.414 237.326C178.29 236.967 178.055 236.658 177.743 236.442Z" fill="#2F2E41"/>
<path d="M189.503 232.477H193.662L196.109 208.857L188.293 208.39L189.503 232.477Z" fill="#FFB6B6"/>
<path d="M201.108 236.442L194.792 232.079V229.23L193.992 229.276L189.357 229.555L188.147 229.626L187.309 239.684H190.291L190.821 236.868L192.185 239.684H200.099C200.478 239.683 200.847 239.562 201.152 239.337C201.457 239.113 201.683 238.796 201.795 238.434C201.908 238.072 201.902 237.684 201.779 237.326C201.655 236.967 201.42 236.658 201.108 236.442Z" fill="#2F2E41"/>
<path d="M164.373 218.641H164.389L165.189 192.555C164.671 191.556 164.408 190.445 164.424 189.32C164.44 188.196 164.733 187.092 165.278 186.109L165.393 185.901L165.096 184.525C164.715 182.756 164.89 180.913 165.597 179.248L166.343 154.914C163.677 137.635 176.383 126.366 176.383 126.366L175.215 117.31L195.767 117.777L195.417 126.366L199.504 140.406C201.654 161.358 201.782 181.884 199.582 201.92C199.578 201.978 199.586 202.036 199.607 202.089C199.83 202.768 199.909 203.486 199.838 204.197C199.767 204.908 199.547 205.596 199.194 206.217C199.102 206.376 199.039 206.549 199.008 206.729C198.555 210.242 198.496 205.799 197.895 209.28L198.012 209.339C198.433 209.485 198.613 210.068 198.415 210.641C198.217 211.215 197.715 211.563 197.295 211.418L186.308 211.535C185.888 211.39 185.707 210.807 185.905 210.233C186.103 209.659 186.605 209.312 187.026 209.457L187.709 209.802L186.566 206.061L186.165 205.687C185.973 205.508 185.824 205.287 185.729 205.042C185.634 204.797 185.596 204.534 185.617 204.272C185.639 204.01 185.719 203.757 185.852 203.53C185.985 203.304 186.168 203.11 186.386 202.964L186.719 192.103L186.88 187.505L186.547 182.289L185.006 158.826L179.174 187.679L173.217 218.932C173.356 219.057 173.46 219.216 173.52 219.393C173.58 219.571 173.593 219.76 173.559 219.944C173.504 220.201 173.361 220.431 173.156 220.595C172.95 220.758 172.694 220.845 172.431 220.84H164.344C164.174 220.84 164.007 220.8 163.855 220.725C163.703 220.65 163.571 220.54 163.468 220.405C163.365 220.27 163.295 220.113 163.263 219.947C163.231 219.78 163.238 219.609 163.283 219.445C163.351 219.21 163.495 219.004 163.692 218.859C163.889 218.714 164.128 218.637 164.373 218.641Z" fill="#2F2E41"/>
<path d="M171.564 67.0212C171.564 68.6867 171.972 70.327 172.753 71.7979C173.535 73.2688 174.665 74.5255 176.045 75.4575C177.426 76.3896 179.014 76.9686 180.67 77.1436C182.326 77.3187 184 77.0845 185.545 76.4616C187.09 75.8387 188.458 74.8462 189.529 73.5711C190.601 72.296 191.343 70.7774 191.691 69.1485C192.038 67.5196 191.981 65.8304 191.523 64.2289C191.065 62.6275 190.221 61.1629 189.066 59.9637L189.017 59.915C188.935 59.8295 188.854 59.744 188.768 59.6626C188.768 59.6626 188.767 59.6625 188.767 59.6623C188.766 59.6621 188.766 59.6618 188.766 59.6614C188.765 59.661 188.765 59.6606 188.765 59.6601C188.764 59.6596 188.764 59.659 188.764 59.6585C188.648 59.5733 188.54 59.4765 188.443 59.3695C187.069 57.4501 185.512 55.8407 181.74 56.8462C176.308 58.2937 171.564 61.4005 171.564 67.0212Z" fill="#2F2E41"/>
<path d="M227.458 62.6654C227.481 63.2097 227.385 63.7526 227.175 64.2556C226.966 64.7586 226.649 65.2096 226.246 65.5768C225.844 65.944 225.365 66.2184 224.845 66.3808C224.325 66.5432 223.776 66.5896 223.236 66.5167L196.995 88.0525L192.987 81.0076L220.041 62.0538C220.224 61.1548 220.73 60.354 221.463 59.8032C222.197 59.2524 223.107 58.9897 224.021 59.0651C224.935 59.1405 225.79 59.5486 226.424 60.2122C227.057 60.8757 227.425 61.7486 227.458 62.6654V62.6654Z" fill="#FFB6B6"/>
<path d="M185.915 94.4036C185.915 94.4036 186.769 96.1774 190.094 93.6579C192.756 91.6408 205.463 82.9383 208.286 79.2597C208.878 79.5273 209.542 79.5903 210.174 79.4387C210.806 79.2871 211.37 78.9296 211.776 78.4224L204.834 71.7382C202.655 71.8853 202.633 73.3431 202.82 74.1801L197.24 76.3972L182.708 84.7462L185.274 93.1325L185.915 94.4036Z" fill="#E6E6E6"/>
<path d="M184.246 77.9076C188.959 77.9076 192.779 74.0876 192.779 69.3754C192.779 64.6632 188.959 60.8432 184.246 60.8432C179.534 60.8432 175.714 64.6632 175.714 69.3754C175.714 74.0876 179.534 77.9076 184.246 77.9076Z" fill="#FFB7B7"/>
<path d="M195.885 111.697L195.973 106.937C196.319 106.462 199.223 102.311 198.572 98.1644C198.267 96.2121 197.208 94.5727 195.431 93.2962L194.284 90.6265L192.586 86.6802L187.617 83.7226L186.929 82.3209L186.362 81.1571L179.508 80.4729L177.819 82.7464L177.785 82.7506C176.233 83.1034 174.774 83.7863 173.509 84.7529C172.12 85.8067 170.995 87.1679 170.22 88.7298C169.446 90.2917 169.044 92.0118 169.046 93.7551L169.087 99.2866L169.096 100.079L169.1 100.847L173.376 112.356L173.539 112.802L175.215 117.312L174.928 117.787C174.618 118.305 174.503 118.916 174.605 119.511C174.707 120.105 175.018 120.644 175.482 121.029L175.683 123.849L176.046 123.748L178.111 123.173L193.729 118.813C194.317 118.649 194.836 118.3 195.21 117.816C195.223 117.799 195.236 117.781 195.247 117.762C195.309 117.686 195.363 117.603 195.41 117.516C195.764 116.619 195.802 116.377 195.806 116.127C196.325 115.536 196.624 114.785 196.655 114C196.685 113.215 196.444 112.443 195.973 111.814L195.885 111.697Z" fill="#E6E6E6"/>
<path d="M175.317 71.6122C175.394 71.5999 175.472 71.5837 175.549 71.5714C176.88 71.3354 178.211 71.1034 179.538 70.8633L179.66 67.8555L181.267 70.5499C184.934 71.7668 188.366 71.079 191.593 69.5609C192.658 69.0555 193.691 68.486 194.686 67.8556C195.014 62.7688 192.958 59.5124 189.131 59.8539C188.991 59.8664 188.891 59.7237 188.768 59.6626C188.768 59.6626 188.767 59.6625 188.767 59.6623C188.766 59.6621 188.766 59.6618 188.766 59.6614C188.765 59.661 188.765 59.6605 188.765 59.66C188.764 59.6596 188.764 59.659 188.764 59.6585C188.557 59.5608 188.345 59.4672 188.134 59.3817C186.477 58.7342 184.67 58.5702 182.924 58.9089C181.177 59.2475 179.563 60.0748 178.268 61.2946C175.663 63.7815 174.491 67.8881 175.317 71.6122Z" fill="#2F2E41"/>
<path d="M180.876 57.0915C180.791 57.3855 180.622 57.6483 180.39 57.8483C180.159 58.0482 179.874 58.1766 179.571 58.2178C178.423 59.6362 177.109 61.1379 175.311 61.4216C174.797 61.5306 174.261 61.438 173.814 61.1629C173.759 61.1286 173.709 61.088 173.664 61.042C173.238 60.6373 173.205 59.8239 173.71 59.5193C171.449 60.4162 170.126 62.8566 169.792 65.2635C169.459 67.6705 169.922 70.1025 170.226 72.5137C170.531 74.9248 170.664 77.4569 169.717 79.697C168.599 82.3376 166.03 84.2357 163.226 84.8405C162.976 84.8948 162.726 84.9407 162.471 84.9699C162.302 83.8249 161.877 82.7327 161.228 81.7744C161.4 82.8834 161.298 84.0176 160.932 85.0783C158.824 85.0491 156.754 84.5141 154.896 83.5182C152.355 82.1791 150.24 80.135 148.509 77.8449C151.492 79.9598 155.613 80.7524 158.859 79.0797C161.762 77.5779 163.477 74.4242 164.228 71.2455C164.978 68.0626 161.822 64.163 162.165 60.9134C162.511 57.6637 166.43 54.9056 168.574 52.4402C169.943 50.8676 171.962 49.7037 174.043 49.8998C174.746 49.9668 175.427 50.1845 176.038 50.5381C176.649 50.8917 177.177 51.3728 177.585 51.9488C177.994 52.5248 178.274 53.1821 178.405 53.8759C178.537 54.5697 178.517 55.2837 178.348 55.9693C178.941 55.1309 180.472 55.3144 180.851 56.2697C180.953 56.5328 180.962 56.8227 180.876 57.0915Z" fill="#2F2E41"/>
<path d="M175.549 71.5714C175.549 71.5714 178.077 62.1372 188.911 59.9597C188.923 59.9556 188.964 59.9393 189.017 59.915C189.049 59.8946 189.09 59.8742 189.131 59.8539C189.009 59.7847 188.891 59.7237 188.768 59.6626C188.768 59.6626 188.767 59.6625 188.767 59.6623C188.766 59.6621 188.766 59.6618 188.766 59.6614C188.765 59.661 188.765 59.6606 188.765 59.6601C188.764 59.6596 188.764 59.659 188.764 59.6585C188.659 59.5608 188.553 59.4631 188.443 59.3695L188.134 59.3817C188.134 59.3817 177.263 57.6601 175.549 71.5714Z" fill="#FD6584"/>
<path d="M202.74 116.53C202.643 116.284 202.48 116.07 202.27 115.911C202.06 115.752 201.809 115.653 201.547 115.626C201.02 115.581 200.491 115.657 199.999 115.85C198.069 116.493 196.336 117.62 194.966 119.123L194.989 120.078C194.346 120.898 194.002 121.915 194.016 122.958C194.029 124.001 194.399 125.008 195.064 125.812C195.44 126.274 195.952 126.606 196.528 126.759C196.815 126.831 197.117 126.824 197.401 126.738C197.685 126.652 197.941 126.492 198.141 126.273C198.717 125.571 198.439 124.512 198.015 123.708C197.275 122.31 196.192 121.123 194.867 120.257C197.079 120.201 199.251 119.661 201.232 118.675C201.671 118.483 202.067 118.205 202.396 117.858C202.559 117.683 202.676 117.469 202.736 117.237C202.796 117.006 202.797 116.762 202.74 116.53Z" fill="#2F2E41"/>
<path d="M242.396 172.719L238.268 172.883C237.235 174.791 236.684 176.923 236.663 179.093C239.119 176.119 243.825 176.515 247.118 174.506C248.14 173.872 249.007 173.016 249.654 172.001C250.3 170.986 250.71 169.839 250.853 168.644L252.395 166.152C250.485 165.8 248.521 165.866 246.639 166.345C244.757 166.825 243.001 167.707 241.492 168.931C240.653 169.626 239.904 170.424 239.264 171.306C240.839 171.912 242.396 172.719 242.396 172.719Z" fill="#F2F2F2"/>
<path d="M221.797 217.596L217.669 217.759C216.636 219.668 216.085 221.8 216.064 223.97C218.52 220.995 223.225 221.392 226.519 219.383C227.541 218.748 228.408 217.892 229.054 216.877C229.701 215.862 230.111 214.715 230.254 213.52L231.796 211.029C229.886 210.676 227.922 210.742 226.04 211.222C224.158 211.702 222.402 212.584 220.893 213.808C220.054 214.502 219.305 215.3 218.665 216.182C220.24 216.788 221.797 217.596 221.797 217.596Z" fill="#F2F2F2"/>
<path d="M124.49 154.056L120.99 151.86C119.06 152.852 117.401 154.3 116.158 156.079C119.865 155.011 123.524 157.995 127.377 158.198C128.579 158.252 129.778 158.034 130.884 157.562C131.991 157.09 132.977 156.374 133.77 155.469L136.45 154.284C135.073 152.914 133.415 151.859 131.59 151.192C129.766 150.525 127.819 150.262 125.883 150.42C124.798 150.519 123.729 150.754 122.703 151.121C123.661 152.511 124.49 154.056 124.49 154.056Z" fill="#F2F2F2"/>
<path d="M227.608 58.2325C227.526 57.6795 228.126 57.2855 228.35 56.7735C228.494 56.3166 228.494 55.8263 228.35 55.3695C228.22 54.7488 228.071 54.0904 227.622 53.6432C227.162 53.2572 226.597 53.0201 226 52.9632C224.548 52.7097 223.066 52.6835 221.606 52.8854L222.714 52.9528C222.016 52.9083 221.317 52.9895 220.648 53.1924C220.315 53.2977 220.014 53.485 219.771 53.7371C219.529 53.9892 219.354 54.2981 219.263 54.6355C219.126 55.3188 219.593 56.1193 220.288 56.1778C219.941 56.1072 219.58 56.1767 219.284 56.3711C218.989 56.5656 218.782 56.8692 218.709 57.2156C218.637 57.5621 218.704 57.9231 218.897 58.2199C219.09 58.5167 219.392 58.7252 219.738 58.7997C219.579 59.2316 219.103 59.4384 218.696 59.6538C218.289 59.8693 217.861 60.2388 217.93 60.6941C218.021 61.2961 218.825 61.4198 219.433 61.3933L226.056 61.1043C226.626 61.1247 227.192 61.007 227.707 60.7613C228.198 60.475 228.541 59.8476 228.314 59.3265C228.139 58.924 227.673 58.6667 227.608 58.2325Z" fill="#3F3D56"/>
<path d="M150.806 117.212C149.896 121.21 149.464 125.743 151.891 129.321C152.923 130.856 154.437 132.003 156.194 132.581C157.972 133.108 159.848 133.224 161.677 132.918C165.817 132.344 169.497 130.188 173.569 129.351C175.366 128.981 177.273 128.859 179.002 129.57C180.298 130.103 181.664 131.174 181.67 132.702C181.676 134.271 180.313 135.313 178.958 135.795C177.149 136.439 175.27 136.19 173.394 136.109C171.374 136.021 169.314 136.204 167.635 137.441C166.192 138.568 165.085 140.069 164.434 141.781C163.591 143.828 163.248 146.029 162.709 148.166C162.227 150.086 161.545 151.951 160.674 153.729C158.965 157.215 156.57 160.32 153.632 162.857C152.183 164.104 150.422 165.375 148.444 165.489C146.917 165.577 145.062 164.936 144.473 163.39C144.255 162.722 144.276 161.999 144.534 161.346C144.792 160.692 145.269 160.15 145.885 159.811C147.193 159.151 148.617 160.092 149.04 161.385C149.151 161.683 149.189 162.003 149.153 162.318C149.116 162.634 149.006 162.937 148.83 163.202C148.433 163.793 149.389 164.346 149.783 163.759C150.697 162.395 150.219 160.56 149.099 159.467C148.553 158.91 147.822 158.571 147.044 158.513C146.265 158.455 145.492 158.682 144.869 159.152C144.222 159.645 143.732 160.316 143.461 161.083C143.19 161.85 143.148 162.68 143.342 163.47C143.812 165.169 145.481 166.249 147.147 166.516C149.205 166.847 151.185 166.038 152.846 164.87C154.513 163.667 156.028 162.267 157.359 160.701C160.066 157.589 162.1 153.951 163.335 150.016C164.55 146.123 164.638 140.982 168.248 138.353C170.105 137.001 172.38 137.151 174.558 137.275C176.48 137.384 178.355 137.364 180.118 136.494C181.574 135.776 182.749 134.449 182.774 132.76C182.798 131.054 181.587 129.682 180.16 128.905C176.39 126.852 171.864 128.508 168.16 129.88C164.436 131.259 160.184 132.878 156.226 131.426C154.4 130.716 152.929 129.311 152.137 127.519C151.179 125.486 151.042 123.18 151.264 120.975C151.394 119.807 151.597 118.648 151.87 117.506C152.028 116.814 150.964 116.519 150.806 117.212L150.806 117.212Z" fill="#3F3D56"/>
<path d="M169.083 139.462C168.744 139.036 168.502 138.54 168.376 138.01C168.249 137.48 168.24 136.929 168.35 136.395C168.459 135.861 168.685 135.358 169.01 134.921C169.335 134.483 169.752 134.123 170.231 133.864L164.622 117.258L169.202 99.6599L176.588 102.999L172.03 116.272L175.44 135.593C175.821 136.428 175.883 137.373 175.614 138.25C175.345 139.127 174.763 139.875 173.98 140.352C173.196 140.829 172.265 141.001 171.362 140.837C170.46 140.674 169.648 140.184 169.082 139.462L169.083 139.462Z" fill="#FFB6B6"/>
<path d="M175.843 85.1601C175.843 85.1601 174.108 84.2287 172.902 88.222C171.936 91.419 165.363 108.777 165.245 113.412C164.608 113.544 164.034 113.884 163.612 114.379C163.19 114.873 162.945 115.494 162.915 116.143L172.461 117.464C174.136 116.063 173.297 114.871 172.653 114.304L175.905 108.797L182.7 93.9288L177.109 85.8112L175.843 85.1601Z" fill="#E6E6E6"/>
<path d="M157.57 105.996C156.479 109.639 154.834 113.093 152.693 116.237C152.163 117.009 151.606 117.762 151.023 118.495C150.569 117.671 150.02 116.903 149.386 116.207C147.16 113.761 144.177 112.161 141.282 110.557C138.387 108.953 135.448 107.232 133.403 104.631C132.485 103.461 131.828 102.107 131.476 100.662C131.012 98.7016 131.189 96.6564 132.333 95.0195C133.995 92.6396 137.31 91.8009 140.127 92.4888C142.949 93.1767 145.31 95.1372 147.142 97.3884C146.542 94.6223 149.459 91.9517 152.281 92.1945C155.102 92.441 157.364 94.9055 158.115 97.6349C158.869 100.361 158.379 103.281 157.57 105.996Z" fill="#FF6262"/>
<path d="M212.108 4.79432C210.613 5.03841 209.184 5.5837 207.906 6.39709C206.628 7.21049 205.529 8.27503 204.675 9.52611C203.809 10.8178 203.233 12.2811 202.984 13.816C202.736 15.3509 202.822 16.9213 203.236 18.4201C203.7 20.158 204.583 21.7558 205.807 23.0741C206.292 23.5951 207.071 22.8134 206.588 22.2938C205.624 21.236 204.895 19.9858 204.45 18.6256C204.005 17.2654 203.853 15.8263 204.005 14.4032C204.169 13.0356 204.622 11.7184 205.334 10.5394C206.046 9.36031 207.001 8.34635 208.135 7.56489C209.407 6.67394 210.867 6.08983 212.402 5.85842C213.102 5.75305 212.804 4.68955 212.108 4.79431V4.79432Z" fill="#3F3D56"/>
<g opacity="0.2">
<path opacity="0.2" d="M249.961 22.2019C249.458 22.8104 248.905 23.3763 248.309 23.894C239.051 31.9203 231.528 40.719 225.948 50.0437L223.936 53.4058L223.8 53.6375C223.326 53.2805 222.912 52.8495 222.575 52.3611C221.288 50.4888 221.28 48.028 221.596 45.7768C222.553 39.0269 225.987 32.8744 231.23 28.5168C236.473 24.1592 243.15 21.9082 249.961 22.2019Z" fill="black"/>
</g>
<g opacity="0.2">
<path opacity="0.2" d="M152.693 116.237C152.163 117.009 151.606 117.762 151.023 118.495C150.569 117.671 150.02 116.903 149.386 116.207C147.16 113.761 144.177 112.161 141.282 110.557C138.387 108.953 135.448 107.232 133.403 104.631C132.485 103.461 131.828 102.107 131.476 100.662C137.983 101.564 143.963 104.737 148.36 109.619C150.12 111.601 151.58 113.831 152.693 116.237Z" fill="black"/>
</g>
<path d="M223.226 53.5566C224.039 53.5566 224.697 52.8979 224.697 52.0853C224.697 51.2726 224.039 50.6139 223.226 50.6139C222.413 50.6139 221.755 51.2726 221.755 52.0853C221.755 52.8979 222.413 53.5566 223.226 53.5566Z" fill="#3F3D56"/>
</g>
<defs>
<clipPath id="clip0_3_1194">
<rect width="234.561" height="240" fill="white" transform="translate(63)"/>
</clipPath>
</defs>
</svg>
