<svg width="64" height="64" viewBox="0 0 64 64" fill="none" xmlns="http://www.w3.org/2000/svg">
<path d="M59.2604 0H23.8834C21.3621 0 19.311 2.0512 19.311 4.57238V15.3041H23.4849V4.57238C23.4849 4.3527 23.6637 4.17391 23.8834 4.17391H59.2604C59.4801 4.17391 59.6589 4.3527 59.6589 4.57238V39.9494C59.6589 40.1692 59.4801 40.348 59.2604 40.348H48.8633V44.5219H59.2604C61.7816 44.5219 63.8328 42.4707 63.8328 39.9494V4.57238C63.8326 2.0512 61.7816 0 59.2604 0Z" fill="currentColor"/>
<path d="M40.1167 19.478H4.73989C2.21857 19.478 0.167374 21.5292 0.167374 24.0505V59.4275C0.167513 61.9488 2.21857 64 4.73989 64H40.1169C42.6382 64 44.6894 61.9488 44.6894 59.4276V24.0505C44.6895 21.5292 42.638 19.478 40.1167 19.478ZM40.117 59.8261H4.73989C4.52007 59.8261 4.34129 59.6473 4.34129 59.4276V24.0505C4.34129 23.8307 4.52007 23.6519 4.73989 23.6519H40.1169C40.3367 23.6519 40.5155 23.8307 40.5155 24.0505V59.4276H40.5156C40.5156 59.6473 40.3367 59.8261 40.117 59.8261Z" fill="currentColor"/>
</svg>
