<svg width="64" height="64" viewBox="0 0 64 64" fill="none" xmlns="http://www.w3.org/2000/svg">
<path d="M32 2.66666C23.1365 2.66666 16 9.80316 16 18.6667V21.3333C13.0667 21.3333 10.6667 23.7333 10.6667 26.6667V53.3333C10.6667 56.2667 13.0667 58.6667 16 58.6667H48C50.9333 58.6667 53.3333 56.2667 53.3333 53.3333V26.6667C53.3333 23.7333 50.9333 21.3333 48 21.3333V18.6667C48 9.80316 40.8635 2.66666 32 2.66666ZM32 7.99999C38.0698 7.99999 42.6667 12.5968 42.6667 18.6667V21.3333H21.3333V18.6667C21.3333 12.5968 25.9302 7.99999 32 7.99999ZM32 34.6667C34.9333 34.6667 37.3333 37.0667 37.3333 40C37.3333 42.9333 34.9333 45.3333 32 45.3333C29.0667 45.3333 26.6667 42.9333 26.6667 40C26.6667 37.0667 29.0667 34.6667 32 34.6667Z" fill="currentColor"/>
</svg>
