<svg width="64" height="64" viewBox="0 0 64 64" fill="none" xmlns="http://www.w3.org/2000/svg">
<path d="M24 5.33334C13.7223 5.33334 5.33334 13.7223 5.33334 24C5.33334 34.2777 13.7223 42.6667 24 42.6667C28.6613 42.6667 32.92 40.9281 36.1979 38.0833L37.3333 39.2188V42.6667L53.3333 58.6667L58.6667 53.3333L42.6667 37.3333H39.2188L38.0833 36.1979C40.9281 32.92 42.6667 28.6613 42.6667 24C42.6667 13.7223 34.2777 5.33334 24 5.33334ZM24 10.6667C31.3954 10.6667 37.3333 16.6046 37.3333 24C37.3333 31.3954 31.3954 37.3333 24 37.3333C16.6046 37.3333 10.6667 31.3954 10.6667 24C10.6667 16.6046 16.6046 10.6667 24 10.6667Z" fill="currentColor"/>
</svg>
