<svg width="64" height="64" viewBox="0 0 64 64" fill="none" xmlns="http://www.w3.org/2000/svg">
<path d="M30.4636 5.33334C29.8129 5.33334 29.2525 5.80526 29.1458 6.44793L28.3906 10.9948C27.0926 11.2179 25.8378 11.5629 24.6302 12.0104L21.6927 8.44793C21.2794 7.94393 20.5601 7.81263 19.9948 8.14064L17.3386 9.67709C16.7732 10.0024 16.5259 10.6889 16.7552 11.2969L18.3698 15.6094C17.3686 16.4437 16.4437 17.3686 15.6094 18.3698L11.2969 16.7552C10.6889 16.5259 10.0024 16.7732 9.67709 17.3386L8.14064 19.9948C7.81263 20.5601 7.94393 21.2794 8.44793 21.6927L12.0104 24.6302C11.5629 25.8378 11.2179 27.0926 10.9948 28.3906L6.44793 29.1458C5.80526 29.2552 5.33334 29.8102 5.33334 30.4636V33.5365C5.33334 34.1871 5.80526 34.7475 6.44793 34.8542L10.9948 35.6094C11.2179 36.9074 11.5629 38.1622 12.0104 39.3698L8.44793 42.3073C7.94393 42.7206 7.8153 43.4399 8.14064 44.0052L9.67709 46.6615C10.0024 47.2268 10.6889 47.4741 11.2969 47.2448L15.6094 45.6302C16.4437 46.6314 17.3686 47.5563 18.3698 48.3906L16.7552 52.7031C16.5259 53.3138 16.7759 53.9976 17.3386 54.3229L19.9948 55.8594C20.5601 56.1847 21.2794 56.0534 21.6927 55.5521L24.625 51.9896C25.834 52.438 27.091 52.7818 28.3906 53.0052L29.1458 57.5521C29.2552 58.1948 29.8102 58.6667 30.4636 58.6667H33.5365C34.1871 58.6667 34.7475 58.1948 34.8542 57.5521L35.6094 53.0052C36.9074 52.7821 38.1622 52.4371 39.3698 51.9896L42.3073 55.5521C42.7206 56.0561 43.4399 56.1847 44.0052 55.8594L46.6615 54.3229C47.2268 53.9976 47.4741 53.3111 47.2448 52.7031L45.6302 48.3906C46.6314 47.5563 47.5563 46.6314 48.3906 45.6302L52.7031 47.2448C53.3138 47.4741 53.9976 47.2241 54.3229 46.6615L55.8594 44.0052C56.1847 43.4399 56.0534 42.7206 55.5521 42.3073L51.9896 39.375C52.438 38.166 52.7818 36.909 53.0052 35.6094L57.5521 34.8542C58.1948 34.7448 58.6667 34.1898 58.6667 33.5365V30.4636C58.6667 29.8129 58.1948 29.2525 57.5521 29.1458L53.0052 28.3906C52.7821 27.0926 52.4371 25.8378 51.9896 24.6302L55.5521 21.6927C56.0561 21.2794 56.1847 20.5601 55.8594 19.9948L54.3229 17.3386C53.9976 16.7732 53.3111 16.5259 52.7031 16.7552L48.3906 18.3698C47.5563 17.3686 46.6314 16.4437 45.6302 15.6094L47.2448 11.2969C47.4741 10.6862 47.2241 10.0024 46.6615 9.67709L44.0052 8.14064C43.4399 7.8153 42.7206 7.94659 42.3073 8.44793L39.375 12.0104C38.166 11.562 36.909 11.2182 35.6094 10.9948L34.8542 6.44793C34.7448 5.80526 34.1898 5.33334 33.5365 5.33334H30.4636ZM29.3333 16.2396V24.4636C27.7746 25.0147 26.4248 26.0352 25.4698 27.3848C24.5147 28.7343 24.0013 30.3467 24 32C24.0001 32.491 24.0455 32.9809 24.1354 33.4636L17.0104 37.5729C16.3686 35.8369 16 33.9653 16 32C16 24.0431 21.7476 17.5035 29.3333 16.2396ZM34.6667 16.2396C42.2524 17.5035 48 24.0431 48 32C48 33.9677 47.6277 35.8404 46.9844 37.5781L39.8594 33.4583C39.9508 32.9776 39.9978 32.4894 40 32C39.9977 30.3476 39.4837 28.7364 38.5287 27.3878C37.5738 26.0393 36.2246 25.0196 34.6667 24.4688V16.2396ZM37.1927 38.0729L44.3438 42.2031C41.4144 45.7494 36.983 48 32 48C27.017 48 22.5856 45.7494 19.6563 42.2031L26.8021 38.0781C28.2504 39.3176 30.0937 39.9991 32 40C33.9052 39.9964 35.7465 39.3131 37.1927 38.0729Z" fill="currentColor"/>
</svg>
