<svg width="64" height="64" viewBox="0 0 64 64" fill="none" xmlns="http://www.w3.org/2000/svg">
<path d="M48 5.33334C45.8783 5.33334 43.8434 6.1762 42.3431 7.67649C40.8429 9.17678 40 11.2116 40 13.3333C40.0016 13.8351 40.0505 14.3355 40.1458 14.8281L21.1719 25.8958C19.7267 24.6716 17.894 23.9998 16 24C13.8783 24 11.8434 24.8429 10.3431 26.3432C8.84285 27.8434 8 29.8783 8 32C8 34.1217 8.84285 36.1566 10.3431 37.6569C11.8434 39.1572 13.8783 40 16 40C17.8911 39.9963 19.7197 39.3228 21.1615 38.099L40.1458 49.1719C40.0505 49.6645 40.0016 50.1649 40 50.6667C40 52.7884 40.8429 54.8232 42.3431 56.3235C43.8434 57.8238 45.8783 58.6667 48 58.6667C50.1217 58.6667 52.1566 57.8238 53.6569 56.3235C55.1571 54.8232 56 52.7884 56 50.6667C56 48.5449 55.1571 46.5101 53.6569 45.0098C52.1566 43.5095 50.1217 42.6667 48 42.6667C46.1071 42.6692 44.2764 43.3427 42.8333 44.5677L23.8542 33.4948C23.9495 33.0022 23.9984 32.5017 24 32C23.9984 31.4983 23.9495 30.9978 23.8542 30.5052L42.8281 19.4375C44.2733 20.6618 46.106 21.3336 48 21.3333C50.1217 21.3333 52.1566 20.4905 53.6569 18.9902C55.1571 17.4899 56 15.4551 56 13.3333C56 11.2116 55.1571 9.17678 53.6569 7.67649C52.1566 6.1762 50.1217 5.33334 48 5.33334Z" fill="currentColor"/>
</svg>
