<svg width="64" height="64" viewBox="0 0 64 64" fill="none" xmlns="http://www.w3.org/2000/svg">
<path d="M48 2.66666C39.1365 2.66666 32 9.80316 32 18.6667V21.3333H7.8125C4.97516 21.3333 2.66666 23.7253 2.66666 26.6667V53.3333C2.66666 56.2747 4.97516 58.6667 7.8125 58.6667H37.5208C40.3582 58.6667 42.6667 56.2747 42.6667 53.3333V26.6667C42.6667 23.7253 40.3607 21.3333 37.526 21.3333H37.3333V18.6667C37.3333 12.5968 41.9302 7.99999 48 7.99999C54.0698 7.99999 58.6667 12.5968 58.6667 18.6667V24H64V18.6667C64 9.80316 56.8635 2.66666 48 2.66666ZM22.6875 34.6667C25.6208 34.6667 28.0208 37.0667 28.0208 40C28.0208 42.9333 25.6208 45.3333 22.6875 45.3333C19.7542 45.3333 17.3542 42.9333 17.3542 40C17.3542 37.0667 19.7542 34.6667 22.6875 34.6667Z" fill="currentColor"/>
</svg>
