<svg width="360" height="240" viewBox="0 0 360 240" fill="none" xmlns="http://www.w3.org/2000/svg">
<path d="M139.337 47.0477C152.374 47.0477 162.942 36.5157 162.942 23.5239C162.942 10.532 152.374 0 139.337 0C126.3 0 115.732 10.532 115.732 23.5239C115.732 36.5157 126.3 47.0477 139.337 47.0477Z" fill="#F2F2F2"/>
<path d="M88.8707 108.291C101.907 108.291 112.476 97.7589 112.476 84.7671C112.476 71.7752 101.907 61.2432 88.8707 61.2432C75.834 61.2432 65.2656 71.7752 65.2656 84.7671C65.2656 97.7589 75.834 108.291 88.8707 108.291Z" fill="#F2F2F2"/>
<path d="M138.93 173.59C151.967 173.59 162.535 163.058 162.535 150.066C162.535 137.074 151.967 126.542 138.93 126.542C125.893 126.542 115.325 137.074 115.325 150.066C115.325 163.058 125.893 173.59 138.93 173.59Z" fill="#F2F2F2"/>
<path d="M234.085 229.049C234.386 229.062 234.684 228.984 234.939 228.823C235.194 228.662 235.393 228.427 235.509 228.15C235.625 227.873 235.653 227.567 235.589 227.273C235.525 226.979 235.372 226.713 235.151 226.509C235.114 226.362 235.087 226.256 235.05 226.109C235.063 226.077 235.076 226.046 235.09 226.014C235.393 225.299 235.902 224.69 236.551 224.263C237.201 223.836 237.963 223.61 238.741 223.612C239.519 223.615 240.279 223.847 240.926 224.279C241.572 224.711 242.076 225.324 242.374 226.041C243.566 228.9 245.083 231.765 245.456 234.788C245.621 236.125 245.551 237.479 245.251 238.792C248.049 232.709 249.502 226.097 249.512 219.406C249.512 217.726 249.419 216.049 249.231 214.38C249.076 213.012 248.862 211.653 248.587 210.305C247.087 202.987 243.867 196.129 239.191 190.293C236.927 189.062 235.097 187.17 233.946 184.87C233.53 184.044 233.235 183.162 233.072 182.251C233.327 182.284 233.586 182.305 233.842 182.322C233.921 182.326 234.005 182.33 234.085 182.334L234.115 182.336C234.395 182.348 234.673 182.28 234.916 182.138C235.158 181.997 235.354 181.789 235.481 181.539C235.607 181.289 235.658 181.008 235.628 180.73C235.598 180.451 235.488 180.188 235.311 179.97C235.201 179.835 235.091 179.7 234.98 179.565C234.813 179.356 234.641 179.152 234.474 178.943C234.454 178.924 234.436 178.903 234.419 178.881C234.227 178.643 234.034 178.409 233.842 178.172C234.193 177.628 234.666 177.173 235.223 176.841C237.152 175.715 239.814 176.495 241.208 178.234C242.606 179.974 242.87 182.414 242.384 184.587C241.907 186.436 241.117 188.19 240.049 189.775C240.153 189.909 240.262 190.038 240.367 190.172C242.279 192.623 243.947 195.255 245.344 198.03C245.004 194.921 245.41 191.776 246.528 188.854C247.66 186.13 249.784 183.836 251.654 181.482C253.899 178.654 258.505 179.888 258.901 183.473C258.905 183.508 258.908 183.543 258.912 183.577C258.634 183.733 258.362 183.899 258.096 184.074C257.762 184.297 257.503 184.615 257.353 184.987C257.204 185.358 257.17 185.766 257.257 186.157C257.344 186.548 257.547 186.904 257.841 187.178C258.134 187.452 258.503 187.631 258.901 187.692L258.941 187.698C258.842 188.696 258.667 189.684 258.418 190.655C257.696 193.366 256.419 195.899 254.668 198.096C252.917 200.292 250.73 202.104 248.244 203.418C248.08 203.502 247.921 203.585 247.758 203.665C249.162 207.63 250.043 211.76 250.378 215.952C250.568 218.425 250.557 220.909 250.345 223.381L250.357 223.293C250.893 220.545 252.364 218.066 254.522 216.273C257.726 213.65 262.254 212.684 265.711 210.575C266.079 210.34 266.506 210.214 266.943 210.213C267.379 210.212 267.807 210.336 268.176 210.569C268.544 210.802 268.838 211.136 269.023 211.53C269.208 211.924 269.275 212.363 269.218 212.794C269.213 212.825 269.208 212.856 269.204 212.886C268.688 213.096 268.186 213.337 267.701 213.608C267.423 213.764 267.152 213.93 266.886 214.105C266.551 214.328 266.292 214.646 266.143 215.017C265.993 215.389 265.959 215.797 266.046 216.188C266.133 216.579 266.337 216.935 266.63 217.209C266.923 217.482 267.293 217.662 267.69 217.723L267.73 217.729C267.76 217.733 267.785 217.737 267.814 217.741C266.934 219.837 265.698 221.766 264.16 223.443C262.261 225.474 259.966 227.096 257.416 228.212C254.865 229.327 252.113 229.911 249.328 229.929H249.323C248.567 233.203 247.472 236.39 246.055 239.439H234.377C234.336 239.309 234.298 239.176 234.26 239.047C235.341 239.114 236.426 239.05 237.491 238.855C236.625 237.795 235.759 236.727 234.892 235.668C234.873 235.648 234.855 235.627 234.838 235.606C234.398 235.063 233.955 234.525 233.515 233.983L233.515 233.982C233.492 232.32 233.683 230.662 234.084 229.049L234.085 229.049Z" fill="#F2F2F2"/>
<path d="M142.717 91.1506C142.885 91.7108 143.174 92.2275 143.564 92.6643C143.954 93.101 144.436 93.4472 144.974 93.6785C145.513 93.9098 146.096 94.0206 146.683 94.0029C147.269 93.9853 147.845 93.8398 148.369 93.5765L158.737 103.006L160.113 95.7492L150.05 87.9305C149.548 87.0828 148.751 86.448 147.811 86.1465C146.871 85.845 145.852 85.8977 144.948 86.2946C144.044 86.6915 143.318 87.4051 142.907 88.3001C142.495 89.1951 142.428 90.2093 142.717 91.1506V91.1506Z" fill="#FFB6B6"/>
<path d="M178.804 83.9429C178.804 83.9429 182.42 75.8008 186.986 77.4192C191.18 78.9057 191.737 78.4171 189.194 86.9377L172.039 112.7C172.039 112.7 153.995 101.271 157.004 101.16C160.013 101.048 159.932 95.325 159.932 95.325L167.29 97.7158L167.733 95.3975L168.442 96.1043L170.272 94.6688L178.804 83.9429Z" fill="#FF6262"/>
<path d="M199.399 103.199L198.636 110.249L199.085 119.493L179.628 117.214L178.236 103.199L180.695 103.223L199.399 103.199Z" fill="#FFB6B6"/>
<path d="M203.137 231.191H198.645L194.28 197.519H204.454L203.137 231.191Z" fill="#FFB6B6"/>
<path d="M204.454 204.017V211.309C204.454 211.309 197.983 217.081 193.466 211.715L190.649 187.939C190.649 187.939 190.58 185.713 189.184 184.391C189.065 184.277 188.961 184.149 188.875 184.009C187.866 182.456 188.277 179.244 188.277 179.244C188.277 179.244 186.315 178.189 185.696 174.782C185.078 171.375 183.043 163.933 183.043 163.933C183.043 163.933 178.839 152.946 179.132 145.99C179.185 144.704 179.205 143.532 179.205 142.478C179.193 137.821 178.725 135.416 178.725 135.416L177.874 119.258L179.628 116.808L187.65 117.043L188.195 117.027L188.395 117.023L196.632 116.776L201.284 119.501C201.284 119.501 201.699 120.531 202.285 121.955C203.38 124.595 205.065 128.59 205.809 129.933C206.957 132.001 206.387 142.644 202.48 147.373C202.48 147.373 200.856 149.673 201.284 150.504C201.67 151.258 201.3 152.536 201.227 152.763V152.767C201.219 152.788 201.215 152.8 201.215 152.8L200.592 166.59C200.592 166.59 200.592 172.499 201.988 174.657C203.384 176.814 204.454 204.017 204.454 204.017Z" fill="#2F2E41"/>
<path d="M205.508 238.947H202.287L201.712 235.916L200.239 238.947H191.695C191.285 238.947 190.887 238.817 190.557 238.575C190.227 238.333 189.983 237.993 189.861 237.603C189.739 237.213 189.746 236.795 189.879 236.409C190.013 236.023 190.267 235.69 190.604 235.458L197.427 230.762V227.698L204.603 228.125L205.508 238.947Z" fill="#2F2E41"/>
<path d="M176.578 231.279L172.156 230.489L173.821 196.578L183.836 198.367L176.578 231.279Z" fill="#FFB6B6"/>
<path d="M202.48 147.373C202.48 147.373 200.857 149.673 201.284 150.504C201.67 151.259 201.3 152.536 201.227 152.763V152.767C200.778 153.12 200.303 153.439 199.806 153.72C199.806 153.72 197.454 155.278 197.552 156.207C197.645 157.135 196.648 158.32 196.648 158.32L191.044 170.942C191.044 170.942 188.887 176.449 189.404 178.964C189.563 179.735 189.306 181.677 188.875 184.009C187.91 189.29 184.418 207.902 184.418 207.902L181.663 214.554C181.663 214.554 171.354 211.703 171.082 210.904C171.082 210.904 174.744 185.133 173.926 183.397C173.108 181.661 173.511 176.579 174.179 173.184C174.842 169.786 175.75 150.354 178.558 143.982C178.786 143.463 179.001 142.96 179.205 142.478C181.472 137.039 182.033 133.981 182.033 133.981L187.129 118.621L187.65 117.043L187.768 117.619L188.395 117.023L197.56 120.276L202.285 121.955C203.38 124.595 205.065 128.59 205.81 129.933C206.957 132.001 206.387 142.644 202.48 147.373Z" fill="#2F2E41"/>
<path d="M177.257 228.203L172.324 227.017L171.575 226.837L171.034 229.854L163.485 233.277C163.112 233.446 162.802 233.729 162.602 234.085C162.402 234.441 162.322 234.852 162.373 235.257C162.425 235.662 162.605 236.04 162.887 236.336C163.17 236.631 163.54 236.829 163.943 236.9L172.35 238.404L174.337 235.679L174.366 238.765L177.539 239.329L178.564 228.517L177.257 228.203Z" fill="#2F2E41"/>
<path d="M293.515 240H65.4846C65.3563 240 65.2334 239.949 65.1428 239.858C65.0523 239.768 65.0014 239.645 65.0014 239.517C65.0014 239.389 65.0523 239.267 65.1428 239.176C65.2334 239.086 65.3563 239.035 65.4846 239.034H293.515C293.644 239.035 293.767 239.086 293.857 239.176C293.948 239.267 293.999 239.389 293.999 239.517C293.999 239.645 293.948 239.768 293.857 239.858C293.767 239.949 293.644 240 293.515 240Z" fill="#CCCCCC"/>
<path d="M190.714 71.8737C195.67 71.8737 199.687 67.8701 199.687 62.9314C199.687 57.9928 195.67 53.9892 190.714 53.9892C185.758 53.9892 181.741 57.9928 181.741 62.9314C181.741 67.8701 185.758 71.8737 190.714 71.8737Z" fill="#FFB7B7"/>
<path d="M181.509 80.0302L186.391 77.1109L188.582 73.4107H194.28L196.156 76.1378L204.786 80.5175L204.7 93.8968L200.791 113.969L178.407 107.48L177.034 99.9595C177.034 99.9595 169.059 91.4641 175.894 86.5986L181.509 80.0302Z" fill="#FF6262"/>
<path d="M202.408 137.798C202.872 137.513 203.267 137.13 203.567 136.677C203.866 136.223 204.062 135.71 204.141 135.172C204.22 134.635 204.18 134.087 204.023 133.567C203.866 133.047 203.597 132.568 203.234 132.162L206.383 98.4799L198.302 99.1019L197.748 132.015C197.105 132.667 196.725 133.532 196.68 134.445C196.634 135.358 196.926 136.256 197.501 136.969C198.075 137.682 198.892 138.16 199.796 138.313C200.701 138.465 201.63 138.282 202.408 137.798H202.408Z" fill="#FFB6B6"/>
<path d="M204.861 80.3056C204.861 80.3056 204.861 80.7112 206.209 84.5187C207.364 87.7803 209.408 107.818 205.42 112.708C206.532 113.391 204.86 126.053 204.454 127.353L196.315 125.325C195.217 123.445 196.385 110.244 197.183 109.931L197.137 103.92L195.054 84.1068L203.075 80.8321L204.861 80.3056Z" fill="#FF6262"/>
<path d="M147.32 96.246L145.267 83.1338C145.197 82.6851 145.309 82.2272 145.577 81.8605C145.846 81.4938 146.25 81.2482 146.7 81.1777L149.567 80.7319C150.017 80.6623 150.477 80.7737 150.845 81.0414C151.213 81.3091 151.459 81.7114 151.53 82.1599L153.583 95.2721C153.653 95.7208 153.541 96.1787 153.272 96.5454C153.004 96.9121 152.6 97.1577 152.15 97.2282L149.282 97.674C148.832 97.7435 148.373 97.6322 148.005 97.3645C147.637 97.0968 147.39 96.6945 147.32 96.246Z" fill="#3F3D56"/>
<path d="M147.14 81.7943C146.897 81.8323 146.68 81.9647 146.535 82.1623C146.39 82.3599 146.33 82.6067 146.368 82.8485L148.421 95.9606C148.459 96.2023 148.592 96.4191 148.79 96.5634C148.988 96.7076 149.236 96.7676 149.478 96.7302L152.346 96.2843C152.588 96.2463 152.806 96.114 152.951 95.9164C153.096 95.7187 153.156 95.472 153.118 95.2302L151.065 82.118C151.027 81.8763 150.894 81.6595 150.696 81.5153C150.498 81.371 150.25 81.311 150.007 81.3484L147.14 81.7943Z" fill="#FF6262"/>
<path d="M204.047 67.0393V68.0417C204.047 68.6886 203.918 69.3289 203.666 69.925C203.413 70.5211 203.044 71.0609 202.579 71.5125C202.115 71.9641 201.564 72.3185 200.96 72.5546C200.355 72.7907 199.71 72.9039 199.061 72.8874L192.452 72.6784C192.374 72.0263 192.158 71.3981 191.818 70.8356C191.864 71.4541 191.776 72.0751 191.561 72.6571L188.638 72.5846C190.956 67.4941 191.86 63.1669 188.638 61.0674H184.306C184.22 60.4487 184.008 59.8539 183.686 59.3184C183.731 59.9111 183.653 60.5067 183.454 61.0674H179.221C179.222 58.918 180.079 56.8569 181.604 55.3371C183.129 53.8172 185.197 52.9632 187.354 52.9627H188.638C198.32 50.5356 203.431 55.7226 204.047 67.0393Z" fill="#2F2E41"/>
<path d="M105.531 94.6804C104.516 94.6804 103.524 94.3805 102.68 93.8186C101.836 93.2566 101.179 92.458 100.79 91.5235C100.402 90.5891 100.3 89.5609 100.498 88.5689C100.696 87.5769 101.185 86.6658 101.903 85.9506C102.62 85.2354 103.535 84.7484 104.53 84.551C105.525 84.3537 106.557 84.455 107.495 84.842C108.432 85.2291 109.234 85.8845 109.798 86.7255C110.362 87.5665 110.663 88.5552 110.663 89.5666C110.661 90.9224 110.12 92.2222 109.158 93.1809C108.196 94.1396 106.892 94.6789 105.531 94.6804ZM105.531 85.3826C104.701 85.3826 103.889 85.628 103.199 86.0877C102.508 86.5474 101.97 87.2009 101.652 87.9654C101.334 88.7299 101.251 89.5712 101.413 90.3828C101.575 91.1944 101.975 91.94 102.562 92.5251C103.15 93.1102 103.898 93.5087 104.712 93.6702C105.526 93.8316 106.371 93.7488 107.138 93.4321C107.905 93.1154 108.561 92.5791 109.022 91.8911C109.483 91.203 109.73 90.3941 109.73 89.5666C109.728 88.4573 109.286 87.3938 108.498 86.6095C107.711 85.8251 106.644 85.3839 105.531 85.3826Z" fill="#2F2E41"/>
<path d="M105.531 96.7724C104.101 96.7724 102.703 96.3498 101.514 95.558C100.325 94.7662 99.3981 93.6408 98.8508 92.3241C98.3035 91.0074 98.1604 89.5586 98.4394 88.1608C98.7184 86.763 99.407 85.479 100.418 84.4713C101.429 83.4635 102.718 82.7773 104.12 82.4992C105.523 82.2212 106.977 82.3639 108.298 82.9093C109.619 83.4547 110.749 84.3783 111.543 85.5632C112.338 86.7482 112.762 88.1414 112.762 89.5666C112.76 91.477 111.997 93.3086 110.642 94.6595C109.286 96.0104 107.448 96.7703 105.531 96.7724ZM105.531 83.2906C104.286 83.2906 103.068 83.6586 102.032 84.3483C100.997 85.0379 100.189 86.018 99.7128 87.1648C99.2361 88.3116 99.1114 89.5735 99.3544 90.791C99.5974 92.0084 100.197 93.1267 101.078 94.0044C101.959 94.8821 103.081 95.4799 104.302 95.722C105.524 95.9642 106.79 95.8399 107.941 95.3649C109.092 94.8899 110.075 94.0855 110.767 93.0534C111.459 92.0213 111.829 90.8079 111.829 89.5666C111.827 87.9027 111.163 86.3074 109.982 85.1309C108.802 83.9543 107.201 83.2924 105.531 83.2906Z" fill="#2F2E41"/>
<path d="M105.531 104.676C102.533 104.676 99.6013 103.789 97.1081 102.129C94.6148 100.469 92.6716 98.1093 91.5241 95.3485C90.3766 92.5877 90.0763 89.5498 90.6613 86.619C91.2463 83.6881 92.6903 80.9959 94.8106 78.8829C96.9309 76.7699 99.6324 75.3309 102.573 74.7479C105.514 74.1649 108.563 74.4642 111.333 75.6077C114.103 76.7513 116.471 78.6878 118.137 81.1725C119.803 83.6571 120.692 86.5783 120.692 89.5666C120.688 93.5723 119.089 97.4127 116.247 100.245C113.404 103.078 109.551 104.671 105.531 104.676ZM105.531 75.3874C102.717 75.3874 99.9662 76.219 97.6264 77.777C95.2866 79.3351 93.4629 81.5495 92.3861 84.1404C91.3092 86.7314 91.0274 89.5823 91.5764 92.3328C92.1254 95.0833 93.4805 97.6098 95.4703 99.5928C97.4602 101.576 99.9954 102.926 102.755 103.473C105.515 104.02 108.376 103.74 110.976 102.666C113.576 101.593 115.798 99.7758 117.361 97.4441C118.925 95.1123 119.759 92.371 119.759 89.5666C119.755 85.8073 118.255 82.2033 115.587 79.5451C112.92 76.8869 109.303 75.3917 105.531 75.3874V75.3874Z" fill="#2F2E41"/>
<path d="M93.4751 81.5515L92.6774 82.0337L98.7237 91.9682L99.5214 91.4861L93.4751 81.5515Z" fill="#2F2E41"/>
<path d="M109.49 94.4885L104.14 103.983L104.953 104.438L110.303 94.9439L109.49 94.4885Z" fill="#2F2E41"/>
<path d="M118.573 82.3597L106.998 82.523L107.012 83.4528L118.586 83.2895L118.573 82.3597Z" fill="#2F2E41"/>
<path d="M123.478 143.097L122.977 142.313C124.226 141.521 125.673 141.094 127.154 141.081L127.163 142.011C125.857 142.022 124.58 142.398 123.478 143.097Z" fill="#2F2E41"/>
<path d="M127.84 163.855C124.743 163.885 121.713 162.953 119.171 161.19C116.628 159.427 114.699 156.92 113.65 154.015C112.602 151.111 112.486 147.953 113.318 144.98C114.151 142.007 115.891 139.366 118.297 137.422L118.885 138.144C116.738 139.878 115.155 142.207 114.334 144.836C113.513 147.466 113.492 150.278 114.273 152.92C115.054 155.561 116.602 157.913 118.722 159.679C120.843 161.445 123.44 162.546 126.187 162.843C128.934 163.14 131.708 162.62 134.159 161.349C136.61 160.077 138.629 158.111 139.96 155.698C141.292 153.284 141.876 150.533 141.641 147.789C141.405 145.045 140.359 142.432 138.636 140.28L139.365 139.699C141.455 142.291 142.604 145.511 142.624 148.837C142.657 152.781 141.12 156.577 138.348 159.392C135.577 162.208 131.798 163.813 127.84 163.855Z" fill="#2F2E41"/>
<path d="M121.716 150.133L120.821 149.87C120.992 149.266 121.32 148.716 121.771 148.278C122.223 147.839 122.783 147.527 123.394 147.373L123.469 147.364L126.265 147.256L127.337 145.954L126.513 145.689L122.505 142.753L122.475 139.67L118.304 142.499L118.259 137.818L119.192 137.81L119.22 140.753L123.391 137.924L123.433 142.279L126.943 144.85L128.927 145.488L126.72 148.169L123.55 148.291C123.111 148.416 122.713 148.651 122.392 148.974C122.071 149.296 121.838 149.695 121.716 150.133Z" fill="#2F2E41"/>
<path d="M140.766 145.942L132.008 133.65C127.594 134.773 127.429 141.486 127.428 141.556L126.496 141.54C126.501 141.221 126.689 133.711 132.121 132.673L132.416 132.616L138.786 141.557L138.348 139.68L139.257 139.47L140.766 145.942Z" fill="#2F2E41"/>
<path d="M127.531 155.955C125.842 155.962 124.212 155.343 122.956 154.219C121.7 153.095 120.908 151.545 120.733 149.872L121.662 149.782C121.809 151.272 122.527 152.648 123.666 153.623C124.806 154.598 126.279 155.097 127.779 155.017C129.279 154.936 130.689 154.282 131.717 153.191C132.745 152.1 133.311 150.655 133.297 149.158C133.291 148.158 133.024 147.177 132.524 146.31C132.023 145.444 131.305 144.721 130.44 144.215L128.388 143L132.423 143.608C130.947 142.425 129.072 141.853 127.185 142.01L127.132 141.082C131.811 140.814 134.008 143.877 134.099 144.007L134.717 144.894L132.342 144.536C133.257 145.485 133.874 146.681 134.116 147.976C134.357 149.27 134.214 150.607 133.702 151.821C133.191 153.035 132.334 154.073 131.237 154.808C130.14 155.543 128.852 155.941 127.531 155.955V155.955Z" fill="#2F2E41"/>
<path d="M139.735 20.4742C139.66 20.3998 139.59 20.3301 139.515 20.2557C136.705 17.5178 132.925 15.9952 128.995 16.0183C125.065 16.0415 121.303 17.6086 118.526 20.3795C115.749 23.1503 114.18 26.9011 114.161 30.8174C114.143 34.7337 115.675 38.4994 118.425 41.2967C118.49 41.3664 118.56 41.4361 118.63 41.5059C121.437 44.2561 125.22 45.7899 129.156 45.7733C133.093 45.7568 136.863 44.1912 139.646 41.4175C142.429 38.6438 144 34.8866 144.017 30.964C144.034 27.0415 142.494 23.2712 139.735 20.4742ZM129.089 44.8438C125.488 44.8471 122.026 43.461 119.428 40.9759C119.269 40.8271 119.116 40.6737 118.971 40.5157C116.446 37.8839 115.055 34.3718 115.095 30.7309C115.136 27.0899 116.605 23.6094 119.188 21.0341C121.771 18.4588 125.262 16.9933 128.916 16.9512C132.569 16.9091 136.094 18.2938 138.736 20.8089C138.895 20.9577 139.049 21.1111 139.198 21.2692C141.094 23.2416 142.367 25.726 142.858 28.4135C143.349 31.101 143.036 33.8729 141.959 36.3848C140.882 38.8967 139.088 41.0377 136.8 42.5417C134.512 44.0456 131.83 44.8462 129.089 44.8438Z" fill="#2F2E41"/>
<path d="M139.515 20.2557L138.736 20.809L127.326 28.8655L126.887 29.1723L118.971 40.5157L118.425 41.2967C118.49 41.3664 118.56 41.4362 118.63 41.5059L119.428 40.9759L130.839 33.3936L131.291 33.0914L139.198 21.2692L139.735 20.4742C139.66 20.3998 139.59 20.3301 139.515 20.2557ZM130.862 32.0593L130.619 32.4219L130.19 32.7055L121.546 38.4469L127.307 30.1951L127.559 29.8325L127.974 29.5396L136.632 23.4309L130.862 32.0593Z" fill="#2F2E41"/>
<path d="M127.53 29.1515L126.915 29.8512L130.647 33.1054L131.262 32.4057L127.53 29.1515Z" fill="#2F2E41"/>
<path d="M129.322 17.6477H128.389V19.8257H129.322V17.6477Z" fill="#2F2E41"/>
<path d="M129.322 41.3571H128.389V43.5352H129.322V41.3571Z" fill="#2F2E41"/>
<path d="M129.322 17.6477H128.389V19.8257H129.322V17.6477Z" fill="black"/>
<path d="M129.322 41.3571H128.389V43.5352H129.322V41.3571Z" fill="black"/>
<path d="M133.246 18.4007L132.435 20.4233L133.301 20.7683L134.112 18.7458L133.246 18.4007Z" fill="#2F2E41"/>
<path d="M124.41 40.4145L123.599 42.4371L124.466 42.7821L125.277 40.7595L124.41 40.4145Z" fill="#2F2E41"/>
<path d="M133.246 18.4007L132.435 20.4233L133.301 20.7683L134.112 18.7458L133.246 18.4007Z" fill="black"/>
<path d="M124.41 40.4145L123.599 42.4371L124.466 42.7821L125.277 40.7595L124.41 40.4145Z" fill="black"/>
<path d="M136.166 19.8824L134.873 21.6382L135.625 22.1884L136.918 20.4326L136.166 19.8824Z" fill="#2F2E41"/>
<path d="M122.087 38.9945L120.793 40.7502L121.546 41.3004L122.839 39.5447L122.087 38.9945Z" fill="#2F2E41"/>
<path d="M136.166 19.8824L134.873 21.6382L135.625 22.1884L136.918 20.4326L136.166 19.8824Z" fill="black"/>
<path d="M122.087 38.9945L120.793 40.7502L121.546 41.3004L122.839 39.5447L122.087 38.9945Z" fill="black"/>
<path d="M139.403 23.0235L137.585 24.2317L138.102 25.0053L139.921 23.7971L139.403 23.0235Z" fill="#2F2E41"/>
<path d="M119.609 36.1776L117.791 37.3857L118.308 38.1593L120.127 36.9512L119.609 36.1776Z" fill="#2F2E41"/>
<path d="M139.403 23.0235L137.585 24.2317L138.102 25.0053L139.921 23.7971L139.403 23.0235Z" fill="black"/>
<path d="M119.609 36.1776L117.791 37.3857L118.308 38.1593L120.127 36.9512L119.609 36.1776Z" fill="black"/>
<path d="M141.062 26.1413L138.983 26.8157L139.272 27.6996L141.35 27.0252L141.062 26.1413Z" fill="#2F2E41"/>
<path d="M118.44 33.4829L116.362 34.1573L116.651 35.0413L118.729 34.3668L118.44 33.4829Z" fill="#2F2E41"/>
<path d="M141.062 26.1413L138.983 26.8157L139.272 27.6996L141.35 27.0252L141.062 26.1413Z" fill="black"/>
<path d="M118.44 33.4829L116.362 34.1573L116.651 35.0413L118.729 34.3668L118.44 33.4829Z" fill="black"/>
<path d="M141.833 29.8805L139.648 29.922L139.666 30.8518L141.851 30.8103L141.833 29.8805Z" fill="#2F2E41"/>
<path d="M118.046 30.3311L115.861 30.3726L115.879 31.3024L118.064 31.2609L118.046 30.3311Z" fill="#2F2E41"/>
<path d="M141.833 29.8805L139.648 29.922L139.666 30.8518L141.851 30.8103L141.833 29.8805Z" fill="black"/>
<path d="M118.046 30.3311L115.861 30.3726L115.879 31.3024L118.064 31.2609L118.046 30.3311Z" fill="black"/>
<path d="M139.493 32.5265L139.286 33.4331L141.417 33.9161L141.624 33.0095L139.493 32.5265Z" fill="#2F2E41"/>
<path d="M116.295 27.2667L116.088 28.1733L118.219 28.6564L118.426 27.7498L116.295 27.2667Z" fill="#2F2E41"/>
<path d="M139.493 32.5265L139.286 33.4331L141.417 33.9161L141.624 33.0095L139.493 32.5265Z" fill="black"/>
<path d="M116.295 27.2667L116.088 28.1733L118.219 28.6564L118.426 27.7498L116.295 27.2667Z" fill="black"/>
<path d="M138.685 35.0836L138.259 35.9112L140.205 36.9037L140.63 36.076L138.685 35.0836Z" fill="#2F2E41"/>
<path d="M117.507 24.2792L117.082 25.1068L119.027 26.0992L119.452 25.2716L117.507 24.2792Z" fill="#2F2E41"/>
<path d="M138.685 35.0836L138.259 35.9112L140.205 36.9037L140.63 36.076L138.685 35.0836Z" fill="black"/>
<path d="M117.507 24.2792L117.082 25.1068L119.027 26.0992L119.452 25.2716L117.507 24.2792Z" fill="black"/>
<path d="M137.407 37.1867L136.805 37.8967L138.474 39.303L139.076 38.593L137.407 37.1867Z" fill="#2F2E41"/>
<path d="M119.238 21.8799L118.636 22.5899L120.305 23.9961L120.907 23.2861L119.238 21.8799Z" fill="#2F2E41"/>
<path d="M137.407 37.1867L136.805 37.8967L138.474 39.303L139.076 38.593L137.407 37.1867Z" fill="black"/>
<path d="M119.238 21.8799L118.636 22.5899L120.305 23.9961L120.907 23.2861L119.238 21.8799Z" fill="black"/>
<path d="M135.791 38.8587L135.05 39.4237L136.378 41.1534L137.119 40.5884L135.791 38.8587Z" fill="#2F2E41"/>
<path d="M121.334 20.0295L120.593 20.5945L121.921 22.3242L122.662 21.7592L121.334 20.0295Z" fill="#2F2E41"/>
<path d="M135.791 38.8587L135.05 39.4237L136.378 41.1534L137.119 40.5884L135.791 38.8587Z" fill="black"/>
<path d="M121.334 20.0295L120.593 20.5945L121.921 22.3242L122.662 21.7592L121.334 20.0295Z" fill="black"/>
<path d="M133.877 40.1348L133.033 40.5306L133.963 42.5014L134.808 42.1056L133.877 40.1348Z" fill="#2F2E41"/>
<path d="M123.748 18.6815L122.904 19.0773L123.835 21.0481L124.679 20.6522L123.748 18.6815Z" fill="#2F2E41"/>
<path d="M133.877 40.1348L133.033 40.5306L133.963 42.5014L134.808 42.1056L133.877 40.1348Z" fill="black"/>
<path d="M123.748 18.6815L122.904 19.0773L123.835 21.0481L124.679 20.6522L123.748 18.6815Z" fill="black"/>
<path d="M131.544 41.0289L130.631 41.2209L131.083 43.352L131.996 43.1599L131.544 41.0289Z" fill="#2F2E41"/>
<path d="M126.629 17.8308L125.716 18.0229L126.167 20.154L127.08 19.9619L126.629 17.8308Z" fill="#2F2E41"/>
<path d="M131.544 41.0289L130.631 41.2209L131.083 43.352L131.996 43.1599L131.544 41.0289Z" fill="black"/>
<path d="M126.629 17.8308L125.716 18.0229L126.167 20.154L127.08 19.9619L126.629 17.8308Z" fill="black"/>
<path d="M126.339 41.0711L125.922 43.2093L126.838 43.3863L127.254 41.2482L126.339 41.0711Z" fill="#2F2E41"/>
<path d="M130.874 17.7966L130.458 19.9347L131.373 20.1118L131.79 17.9736L130.874 17.7966Z" fill="#2F2E41"/>
<path d="M126.339 41.0711L125.922 43.2093L126.838 43.3863L127.254 41.2482L126.339 41.0711Z" fill="black"/>
<path d="M130.874 17.7966L130.458 19.9347L131.373 20.1118L131.79 17.9736L130.874 17.7966Z" fill="black"/>
</svg>
