<svg width="64" height="64" viewBox="0 0 64 64" fill="none" xmlns="http://www.w3.org/2000/svg">
<path d="M32 58.6667C46.7276 58.6667 58.6667 46.7276 58.6667 32C58.6667 17.2724 46.7276 5.33334 32 5.33334C17.2724 5.33334 5.33334 17.2724 5.33334 32C5.33334 46.7276 17.2724 58.6667 32 58.6667Z" fill="#3DDAB4"/>
<path d="M52.1213 23.3533L46.6867 18.1387L30.3667 34.9773L22.2387 27.244L17.024 32.6787L25.124 40.3853L30.56 45.572L30.568 45.564L30.576 45.572L35.8133 40.1587L52.1213 23.3533Z" fill="#C1F5EA"/>
<path d="M30.568 45.564L35.8133 40.1587L30.3667 34.9773L25.124 40.3853L30.568 45.564Z" fill="white"/>
</svg>
