<svg width="64" height="64" viewBox="0 0 64 64" fill="none" xmlns="http://www.w3.org/2000/svg">
<g clip-path="url(#clip0_3_1200)">
<path d="M56.8889 0H7.11111C3.184 0 0 3.184 0 7.11111V17.7778H64V7.11111C64 3.184 60.816 0 56.8889 0Z" fill="#88C9F9"/>
<path d="M64 29.0987V16.4569C62.8658 15.7564 61.5413 15.3333 60.1102 15.3333C57.7547 15.3333 55.6818 16.448 54.3164 18.1564C52.8889 16.8284 50.992 16 48.8889 16C47.6071 16 46.4142 16.3289 45.3404 16.864C44.0231 14.2542 41.3458 12.4444 38.2222 12.4444C37.1431 12.4444 36.1173 12.6649 35.1787 13.0524C34.3253 10.6329 32.0427 8.88889 29.3333 8.88889C27.1876 8.88889 25.2924 9.97511 24.176 11.6302C23.0578 11.0347 21.8009 10.6667 20.4444 10.6667C17.5271 10.6667 15.0009 12.2436 13.6036 14.5742C12.3164 11.2533 9.11111 8.88889 5.33333 8.88889C3.32267 8.88889 1.48978 9.58044 0 10.7058V24.848C1.48978 25.9751 43.5556 32 43.5556 32C43.5556 32 62.8658 29.7991 64 29.0987Z" fill="#E1E8ED"/>
<path d="M64 26.2596C62.5013 24.3556 60.2027 23.1111 57.5929 23.1111C54.0427 23.1111 51.0489 25.3849 49.9164 28.5493C49.5787 28.4907 49.2409 28.4444 48.8889 28.4444C47.4311 28.4444 46.1067 28.9671 45.0453 29.808C43.8738 28.9582 42.4462 28.4444 40.8889 28.4444C40.2613 28.4444 39.664 28.5511 39.0844 28.704C39.088 28.6169 39.1111 28.5333 39.1111 28.4444C39.1111 24.5173 35.9271 21.3333 32 21.3333C29.84 21.3333 27.9271 22.3182 26.624 23.8382C25.5449 23.3742 24.3591 23.1111 23.1111 23.1111C22.7911 23.1111 22.4889 23.1716 22.1778 23.2053C20.3182 18.6756 15.8684 15.4827 10.6667 15.4827C6.13156 15.4827 2.17422 17.9164 0 21.5413V45.6196L57.5929 43.0382C57.5929 43.0382 62.5013 40.6507 64 37.7653V26.2596Z" fill="#CCD6DD"/>
<path d="M64 54.2204V36.3058C62.9102 35.8293 61.7102 35.5556 60.4444 35.5556C56.6667 35.5556 53.4613 37.92 52.1742 41.2409C50.7769 38.9102 48.2507 37.3333 45.3333 37.3333C43.9769 37.3333 42.72 37.7013 41.6018 38.2969C40.4853 36.6418 38.5902 35.5556 36.4444 35.5556C33.7351 35.5556 31.4524 37.2996 30.5991 39.7191C29.6604 39.3316 28.6347 39.1111 27.5556 39.1111C24.432 39.1111 21.7547 40.9209 20.4373 43.5307C19.3636 42.9956 18.1707 42.6667 16.8889 42.6667C14.7858 42.6667 12.8889 43.4951 11.4596 44.8231C10.0942 43.1147 8.02133 42 5.66578 42C3.38311 42 1.36533 43.0507 -0.00177765 44.6684V54.2204H64Z" fill="#E1E8ED"/>
<path d="M64 42.7716C57.7156 39.5182 44.4676 31.2782 35.5556 16C35.5556 16 35.5556 12.4444 32 12.4444C28.4444 12.4444 28.4444 16 28.4444 16C19.5324 31.2782 6.28444 39.5182 0 42.7716V46.448C1.856 45.568 4.30578 44.3076 7.11111 42.592V42.6667H10.6667V40.2827C12.9493 38.7182 15.3547 36.8907 17.7778 34.7822V48H21.3333V31.4809C23.7938 29.0364 26.2044 26.2844 28.4444 23.2053V42.6667H35.5556V23.2071C37.7956 26.2844 40.2062 29.0382 42.6667 31.4827V46.2222H46.2222V34.7822C48.6436 36.8907 51.0507 38.7182 53.3333 40.2844V44.4444H56.8889V42.592C59.6942 44.3076 62.144 45.568 64 46.448V42.7716Z" fill="#FE5011"/>
<path d="M44.4444 44.4445C42.9849 44.4445 41.632 44.8871 40.5031 45.6409C39.3227 42.3716 36.0587 40.1831 32.4427 40.5511C29.0951 40.8925 26.4907 43.3245 25.728 46.4142C25.4062 46.3929 25.0827 46.3805 24.7502 46.4142C23.376 46.5547 22.176 47.1733 21.2569 48.0676C20.0711 47.3796 18.6756 47.0329 17.2071 47.1822C16.6151 47.2427 16.0622 47.4009 15.5324 47.6018C15.5271 47.5182 15.5396 47.4364 15.5324 47.3547C15.1556 43.6516 11.8471 40.9565 8.14578 41.3333C6.11022 41.5413 4.4 42.6524 3.31733 44.2116C2.27556 43.8809 1.15378 43.7529 0 43.8613V56.8889C0 58.2631 0.408889 59.536 1.08444 60.624C1.27111 60.6187 51.5556 55.4827 51.5556 51.5556C51.5556 47.6285 48.3716 44.4445 44.4444 44.4445Z" fill="#F5F8FA"/>
<path d="M56.8889 64C60.816 64 64 60.816 64 56.8889V43.3636C62.3822 42.5938 60.5778 42.1493 58.6667 42.1493C53.4649 42.1493 49.0151 45.3422 47.1556 49.872C46.8444 49.8382 46.5422 49.7778 46.2222 49.7778C44.9742 49.7778 43.7884 50.0391 42.7093 50.5049C41.4062 48.9849 39.4933 48 37.3333 48C33.4062 48 30.2222 51.184 30.2222 55.1111C30.2222 55.2 30.2453 55.2836 30.2489 55.3707C29.6693 55.2178 29.072 55.1111 28.4444 55.1111C26.8871 55.1111 25.4596 55.6249 24.288 56.4747C23.2267 55.6338 21.9022 55.1111 20.4444 55.1111C20.0924 55.1111 19.7547 55.1573 19.4187 55.216C18.2862 52.0516 15.2924 49.7778 11.7404 49.7778C8.208 49.7778 5.22489 52.0285 4.07822 55.1644C3.90222 55.1502 3.73511 55.1111 3.55556 55.1111C2.25422 55.1111 1.04889 55.4862 0 56.0978V56.8889C0 60.816 3.184 64 7.11111 64H56.8889Z" fill="#CCD6DD"/>
</g>
<defs>
<clipPath id="clip0_3_1200">
<rect width="64" height="64" fill="white"/>
</clipPath>
</defs>
</svg>
