<svg width="64" height="64" viewBox="0 0 64 64" fill="none" xmlns="http://www.w3.org/2000/svg">
<path d="M63.6124 43.5876C63.3813 42.8089 62.8622 42.1671 62.1529 41.7813C60.7271 41.0062 58.8125 41.5751 58.0356 42.9956C54.8409 48.8551 49.5538 53.12 43.152 55.008C36.8178 56.8765 29.9307 56.1351 24.1333 52.9742C19.5858 50.496 16.2773 46.3982 14.8142 41.4311C13.4987 36.9618 13.9342 32.5138 15.7956 28.928C15.1502 31.7813 15.2391 34.768 16.0871 37.6533C17.3973 42.1102 20.3662 45.7867 24.4444 48.0053C29.3031 50.6578 35.0916 51.2782 40.4071 49.7138C45.7849 48.128 50.2222 44.5476 52.8978 39.6302C56.1547 33.6605 56.8907 26.7805 54.9689 20.256C53.0489 13.7333 48.704 8.34845 42.7324 5.09334C35.5271 1.16801 26.96 0.248896 19.0898 2.57067C11.1307 4.91379 4.56178 10.2151 0.590227 17.4987C-0.211551 18.9671 0.332449 20.8142 1.80089 21.6178C3.23023 22.3982 5.15023 21.8258 5.92356 20.4053C9.11467 14.5476 14.4 10.2827 20.8053 8.39645C27.1396 6.53334 34.0284 7.26934 39.8258 10.4267C44.3698 12.9049 47.6764 17.0045 49.1396 21.9733C50.4569 26.4427 50.0213 30.8925 48.1582 34.4765C48.8036 31.6249 48.7182 28.6365 47.8702 25.7458C46.5564 21.2942 43.5876 17.616 39.5111 15.392C34.6507 12.7431 28.8622 12.1245 23.5467 13.6871C18.1742 15.2693 13.7369 18.8498 11.0578 23.7689C7.80089 29.7369 7.06667 36.6169 8.98667 43.1413C10.9084 49.6676 15.2533 55.0525 21.2231 58.304C25.7867 60.7929 30.9138 62.1102 36.0516 62.1102C39.0187 62.1102 41.984 61.68 44.8658 60.8302C52.8249 58.4889 59.3956 53.184 63.3653 45.8987C63.7547 45.1893 63.8436 44.3662 63.6124 43.5876ZM29.8382 24.8925C30.5013 24.6969 31.1858 24.5973 31.8702 24.5973C35.0329 24.5973 37.8649 26.7182 38.7591 29.7547C39.8773 33.5556 37.6942 37.5591 33.8933 38.6791C33.2302 38.8747 32.5476 38.9742 31.8631 38.9742C28.7022 38.9742 25.8684 36.8533 24.9742 33.8151C23.8542 30.016 26.0373 26.0125 29.8382 24.8925Z" fill="#55ACEE"/>
</svg>
