<svg width="64" height="64" viewBox="0 0 64 64" fill="none" xmlns="http://www.w3.org/2000/svg">
<g clip-path="url(#clip0_3_1205)">
<path d="M56.8889 0H7.11111C3.184 0 0 3.184 0 7.11111V46.2222H64V7.11111C64 3.184 60.816 0 56.8889 0Z" fill="#F4900C"/>
<path d="M17.7778 64V12.4444L24.8889 5.33333H28.4444L35.5555 12.4444V64H17.7778ZM58.6667 19.5556C58.6667 17.7778 56.8889 17.7778 56.8889 17.7778H44.4444C44.4444 17.7778 42.6667 17.7778 42.6667 19.5556V64H58.6667V19.5556Z" fill="#485359"/>
<path d="M49.7778 30.2222C49.7778 28.4444 48 28.4444 48 28.4444H33.7778C32 28.4444 32 30.2222 32 30.2222V64H49.7778V30.2222ZM19.5556 33.7778H10.6667V24.8889C10.6667 24.8889 10.6667 23.1111 8.88889 23.1111H0V56.8889C0 60.816 3.184 64 7.11111 64H21.3333V35.5556C21.3333 35.5556 21.3333 33.7778 19.5556 33.7778ZM56.8889 44.4444C55.1111 44.4444 55.1111 46.2222 55.1111 46.2222V64H56.8889C60.816 64 64 60.816 64 56.8889V44.4444H56.8889Z" fill="#292F33"/>
<path d="M14.2222 51.5556H17.7778V55.1111H14.2222V51.5556ZM14.2222 37.3333H17.7778V40.8889H14.2222V37.3333ZM10.6667 44.4444H14.2222V48H10.6667V44.4444ZM28.4444 16H32V19.5556H28.4444V16ZM28.4444 23.1111H32V26.6667H28.4444V23.1111ZM24.8889 30.2222H28.4444V33.7778H24.8889V30.2222ZM42.6667 32H46.2222V35.5556H42.6667V32ZM39.1111 39.1111H42.6667V42.6667H39.1111V39.1111ZM35.5555 49.7778H39.1111V53.3333H35.5555V49.7778ZM51.5555 21.3333H55.1111V24.8889H51.5555V21.3333ZM51.5555 28.4444H55.1111V32H51.5555V28.4444Z" fill="#FFCC4D"/>
</g>
<defs>
<clipPath id="clip0_3_1205">
<rect width="64" height="64" fill="white"/>
</clipPath>
</defs>
</svg>
