<svg width="64" height="64" viewBox="0 0 64 64" fill="none" xmlns="http://www.w3.org/2000/svg">
<path d="M32 0C14.3271 0 0 14.3271 0 32C0 49.6729 14.3271 64 32 64C49.6729 64 64 49.6729 64 32C64 14.3271 49.6729 0 32 0ZM3.64444 33.7778H10.7253C10.8889 38.2329 11.6533 42.4373 12.9102 46.2222H7.392C5.24622 42.5191 3.92533 38.2951 3.64444 33.7778ZM33.7778 14.2222V3.69956C38.6613 4.47467 42.9547 8.41956 45.8649 14.2222H33.7778ZM47.3796 17.7778C48.72 21.4809 49.5467 25.7067 49.7209 30.2222H33.7778V17.7778H47.3796ZM30.2222 3.69956V14.2222H18.1351C21.0436 8.41956 25.3387 4.47467 30.2222 3.69956ZM30.2222 17.7778V30.2222H14.2791C14.4533 25.7067 15.28 21.4809 16.6204 17.7778H30.2222ZM10.7271 30.2222H3.64444C3.92533 25.7067 5.24622 21.4809 7.39022 17.7778H12.9084C11.6551 21.5627 10.8907 25.7689 10.7271 30.2222ZM14.2791 33.7778H30.2222V46.2222H16.6204C15.28 42.5191 14.4533 38.2951 14.2791 33.7778ZM30.2222 49.7778V60.3004C25.3387 59.5236 21.0436 55.5804 18.1351 49.7778H30.2222ZM33.7778 60.3004V49.7778H45.8667C42.9564 55.5804 38.6613 59.5236 33.7778 60.3004ZM33.7778 46.2222V33.7778H49.7227C49.5467 38.2951 48.7218 42.5191 47.3813 46.2222H33.7778ZM53.2747 33.7778H60.3538C60.0747 38.2951 58.7538 42.5191 56.608 46.2222H51.0898C52.3449 42.4373 53.1093 38.2329 53.2747 33.7778ZM53.2747 30.2222C53.1093 25.7689 52.3449 21.5627 51.0898 17.7778H56.608C58.7538 21.4809 60.0747 25.7067 60.3538 30.2222H53.2747ZM54.1849 14.2222H49.7351C48.4604 11.3707 46.88 8.86222 45.0791 6.75733C48.6151 8.592 51.7138 11.1413 54.1849 14.2222ZM18.9209 6.75733C17.1182 8.86222 15.5378 11.3707 14.2631 14.2222H9.81511C12.2862 11.1413 15.3849 8.59378 18.9209 6.75733ZM9.81511 49.7778H14.2649C15.5378 52.6293 17.1182 55.1378 18.9209 57.2409C15.3849 55.4062 12.2862 52.8587 9.81511 49.7778ZM45.0791 57.2409C46.8818 55.136 48.4604 52.6293 49.7351 49.7778H54.1849C51.7138 52.8587 48.6151 55.4062 45.0791 57.2409Z" fill="#3B88C3"/>
</svg>
