<svg width="64" height="64" viewBox="0 0 64 64" fill="none" xmlns="http://www.w3.org/2000/svg">
<path d="M64 32C64 49.6729 49.6729 64 32 64C14.3271 64 0 49.6729 0 32C0 14.3289 14.3271 0 32 0C49.6729 0 64 14.3289 64 32Z" fill="#F4900C"/>
<path d="M12.4231 16.9707C11.5449 16.9707 11.0365 16.2773 11.0365 15.2604C11.0365 14.2898 11.5449 13.5964 12.4231 13.5964H51.6213C52.4533 13.5964 52.9618 14.2898 52.9618 15.2604C52.9618 16.2311 52.4533 16.9707 51.6213 16.9707H46.9991V48.8195C46.9991 52.1955 45.4738 53.5342 41.1751 53.5342C39.232 53.5342 36.9227 53.3013 35.12 52.8853C34.2418 52.7022 33.7333 52.0551 33.7333 51.2231C33.7333 51.0844 33.7333 50.8995 33.7796 50.7164C33.9645 49.7902 34.5191 49.2818 35.3049 49.2818C35.4436 49.2818 35.6285 49.2818 35.7671 49.3262C37.3387 49.7422 39.3707 50.0213 40.8053 50.0213C42.7467 50.0213 43.3013 49.6053 43.3013 47.8027V16.9707H12.4231ZM35.6729 39.2498C35.6729 42.208 34.3787 43.3635 31.4667 43.3635H20.5582C17.6 43.3635 16.3058 42.208 16.3058 39.2498V26.9102C16.3058 23.952 17.6 22.7964 20.5582 22.7964H31.4667C34.3787 22.7964 35.6729 23.952 35.6729 26.9102V39.2498ZM30.6827 40.0373C31.6533 40.0373 32.1156 39.76 32.1156 38.7413V27.4169C32.1156 26.4 31.6533 26.1227 30.6827 26.1227H21.2533C20.3289 26.1227 19.8667 26.4 19.8667 27.4169V38.7413C19.8667 39.7582 20.3289 40.0373 21.2533 40.0373H30.6827Z" fill="white"/>
</svg>
