<svg width="64" height="64" viewBox="0 0 64 64" fill="none" xmlns="http://www.w3.org/2000/svg">
<path d="M32 64C49.6731 64 64 49.6731 64 32C64 14.3269 49.6731 0 32 0C14.3269 0 0 14.3269 0 32C0 49.6731 14.3269 64 32 64Z" fill="#66757F"/>
<path d="M18.6667 21.3333C22.1031 21.3333 24.8889 18.5476 24.8889 15.1111C24.8889 11.6747 22.1031 8.88889 18.6667 8.88889C15.2302 8.88889 12.4444 11.6747 12.4444 15.1111C12.4444 18.5476 15.2302 21.3333 18.6667 21.3333Z" fill="#5B6876"/>
<path d="M35.5556 33.7778C38.5011 33.7778 40.8889 31.39 40.8889 28.4444C40.8889 25.4989 38.5011 23.1111 35.5556 23.1111C32.61 23.1111 30.2222 25.4989 30.2222 28.4444C30.2222 31.39 32.61 33.7778 35.5556 33.7778Z" fill="#5B6876"/>
<path d="M38.2222 55.1111C41.6587 55.1111 44.4444 52.3253 44.4444 48.8889C44.4444 45.4525 41.6587 42.6667 38.2222 42.6667C34.7858 42.6667 32 45.4525 32 48.8889C32 52.3253 34.7858 55.1111 38.2222 55.1111Z" fill="#5B6876"/>
<path d="M37.3333 14.2222C39.297 14.2222 40.8889 12.6303 40.8889 10.6667C40.8889 8.70299 39.297 7.11111 37.3333 7.11111C35.3697 7.11111 33.7778 8.70299 33.7778 10.6667C33.7778 12.6303 35.3697 14.2222 37.3333 14.2222Z" fill="#5B6876"/>
<path d="M5.33334 33.7778C6.31517 33.7778 7.11111 32.9818 7.11111 32C7.11111 31.0182 6.31517 30.2222 5.33334 30.2222C4.3515 30.2222 3.55556 31.0182 3.55556 32C3.55556 32.9818 4.3515 33.7778 5.33334 33.7778Z" fill="#5B6876"/>
<path d="M53.3333 17.7778C54.3152 17.7778 55.1111 16.9818 55.1111 16C55.1111 15.0182 54.3152 14.2222 53.3333 14.2222C52.3515 14.2222 51.5556 15.0182 51.5556 16C51.5556 16.9818 52.3515 17.7778 53.3333 17.7778Z" fill="#5B6876"/>
<path d="M26.6667 56.8889C27.6485 56.8889 28.4444 56.093 28.4444 55.1111C28.4444 54.1293 27.6485 53.3333 26.6667 53.3333C25.6848 53.3333 24.8889 54.1293 24.8889 55.1111C24.8889 56.093 25.6848 56.8889 26.6667 56.8889Z" fill="#5B6876"/>
<path d="M56.8889 37.3333C58.8526 37.3333 60.4444 35.7415 60.4444 33.7778C60.4444 31.8141 58.8526 30.2222 56.8889 30.2222C54.9252 30.2222 53.3333 31.8141 53.3333 33.7778C53.3333 35.7415 54.9252 37.3333 56.8889 37.3333Z" fill="#5B6876"/>
<path d="M17.7778 44.4444C19.7415 44.4444 21.3333 42.8526 21.3333 40.8889C21.3333 38.9252 19.7415 37.3333 17.7778 37.3333C15.8141 37.3333 14.2222 38.9252 14.2222 40.8889C14.2222 42.8526 15.8141 44.4444 17.7778 44.4444Z" fill="#5B6876"/>
</svg>
