<svg width="36" height="36" viewBox="0 0 36 36" fill="none" xmlns="http://www.w3.org/2000/svg">
<path d="M10.2 14.938L10.143 14.899C10.069 14.844 2.782 9.311 5.576 2.164C5.777 1.649 6.35699 1.396 6.87099 1.597C7.38899 1.796 7.639 2.378 7.439 2.892C5.194 8.635 11.276 13.249 11.338 13.295C11.781 13.625 11.873 14.251 11.543 14.695C11.226 15.118 10.638 15.22 10.2 14.938ZM24.977 14.522L24.92 14.483C24.846 14.428 17.559 8.895 20.353 1.748C20.554 1.233 21.134 0.980001 21.648 1.181C22.166 1.38 22.416 1.962 22.216 2.476C19.971 8.219 26.053 12.833 26.115 12.879C26.558 13.209 26.65 13.835 26.32 14.279C26.004 14.702 25.415 14.804 24.977 14.522Z" fill="#3E721D"/>
<path d="M11.008 14.522L11.065 14.483C11.139 14.428 18.426 8.895 15.632 1.748C15.431 1.233 14.851 0.980001 14.337 1.181C13.819 1.38 13.569 1.962 13.769 2.476C16.014 8.219 9.932 12.833 9.87 12.879C9.427 13.209 9.335 13.835 9.665 14.279C9.981 14.702 10.57 14.804 11.008 14.522ZM1.861 22.372C1.722 22.345 1.586 22.287 1.464 22.199C1.018 21.873 0.920002 21.248 1.245 20.801C5.649 14.762 13.558 15.338 13.893 15.365C14.442 15.415 14.851 15.892 14.807 16.442C14.763 16.992 14.281 17.402 13.731 17.359C13.66 17.353 6.596 16.859 2.861 21.979C2.625 22.304 2.23 22.444 1.861 22.372ZM5.647 34.349C5.523 34.419 5.383 34.464 5.233 34.476C4.682 34.519 4.201 34.109 4.157 33.558C3.565 26.107 9.94 21.392 10.212 21.195C10.661 20.876 11.282 20.971 11.607 21.417C11.932 21.863 11.833 22.488 11.388 22.814C11.33 22.856 5.648 27.083 6.151 33.4C6.182 33.801 5.974 34.164 5.647 34.349ZM25.757 14.938L25.814 14.899C25.888 14.844 33.175 9.311 30.381 2.164C30.18 1.649 29.6 1.395 29.086 1.596C28.568 1.795 28.318 2.377 28.518 2.891C30.763 8.634 24.681 13.248 24.619 13.294C24.176 13.624 24.084 14.25 24.414 14.694C24.731 15.118 25.319 15.22 25.757 14.938Z" fill="#3E721D"/>
<path d="M34.096 22.372C34.235 22.345 34.371 22.287 34.493 22.199C34.939 21.873 35.037 21.248 34.712 20.801C30.308 14.762 22.399 15.338 22.064 15.365C21.515 15.415 21.106 15.892 21.15 16.442C21.194 16.992 21.676 17.402 22.226 17.359C22.297 17.353 29.361 16.859 33.096 21.979C33.332 22.304 33.727 22.444 34.096 22.372ZM30.31 34.349C30.434 34.419 30.574 34.464 30.724 34.476C31.275 34.519 31.756 34.109 31.8 33.558C32.392 26.107 26.017 21.392 25.745 21.195C25.296 20.876 24.675 20.971 24.35 21.417C24.025 21.863 24.124 22.488 24.569 22.814C24.627 22.856 30.309 27.083 29.806 33.4C29.775 33.801 29.983 34.164 30.31 34.349Z" fill="#3E721D"/>
<path d="M24.24 7.766C24.177 5.14 22.013 3 17.99 3C14.053 3 11.803 5.14 11.74 7.766C9.03 9.551 7.259 12.662 7.259 17C7.259 24.159 12.063 33.923 17.99 33.923C23.917 33.923 28.721 24.159 28.721 17C28.72 12.662 26.949 9.55 24.24 7.766Z" fill="#77B255"/>
<path d="M8.969 10.603C7.895 12.293 7.259 14.425 7.259 17C7.259 24.159 12.063 33.923 17.99 33.923C23.917 33.923 28.721 24.159 28.721 17C28.721 14.422 28.085 12.289 27.009 10.599C24.602 10.204 21.602 10 18 10C14.386 10 11.379 10.205 8.969 10.603Z" fill="#5C913B"/>
<path d="M11.74 7.766C11.74 7.766 14.657 6.999 18.122 6.999C21.587 6.999 24.24 7.766 24.24 7.766C24.24 7.766 24.348 3 17.99 3C11.632 3 11.74 7.766 11.74 7.766Z" fill="#3E721D"/>
<path d="M16.202 34.959C10.446 34.364 5.918 28.064 5.918 20.378C5.918 12.693 10.316 12.375 14.992 12.375C16.426 12.375 17.096 12.955 17.096 15.295V33.836C17.095 35.006 16.497 34.991 16.202 34.959ZM19.6 34.959C25.356 34.364 29.884 28.064 29.884 20.378C29.884 12.693 25.486 12.375 20.81 12.375C19.376 12.375 18.706 12.955 18.706 15.295V33.836C18.707 35.006 19.305 34.991 19.6 34.959Z" fill="#77B255"/>
<path d="M14.915 33.38C14.585 33.38 14.262 33.217 14.071 32.918C8.164 23.666 10.888 13.087 11.218 11.911C11.367 11.38 11.914 11.066 12.451 11.219C12.983 11.368 13.292 11.921 13.143 12.452C12.837 13.539 10.317 23.323 15.755 31.842C16.052 32.308 15.916 32.926 15.45 33.223C15.286 33.329 15.099 33.38 14.915 33.38ZM20.898 33.38C20.713 33.38 20.528 33.329 20.361 33.223C19.895 32.926 19.759 32.308 20.056 31.842C24.474 24.922 23.777 16.398 22.668 12.452C22.519 11.92 22.829 11.368 23.36 11.219C23.893 11.073 24.444 11.38 24.593 11.911C24.923 13.087 27.649 23.664 21.74 32.918C21.552 33.217 21.229 33.38 20.898 33.38Z" fill="#5C913B"/>
<path d="M10 10.832H26V13.832H10V10.832Z" fill="#5C913B"/>
<path d="M6.427 16.518C6.873 15.137 7.866 13.676 9.033 12.842C10.115 12.07 11.147 12.101 10.837 13.51C9.88 17.877 5.813 18.422 6.427 16.518ZM12.887 13.6C13.473 11.87 16.474 11.729 16.919 13.667C17.365 15.605 15.894 15.739 14.691 15.694C13.488 15.649 12.397 15.048 12.887 13.6ZM29.346 16.518C28.9 15.137 27.907 13.676 26.74 12.842C25.658 12.07 24.626 12.101 24.936 13.51C25.893 17.877 29.96 18.422 29.346 16.518ZM22.885 13.6C22.299 11.87 19.298 11.729 18.853 13.667C18.407 15.605 19.878 15.739 21.081 15.694C22.284 15.649 23.375 15.048 22.885 13.6Z" fill="#77B255"/>
</svg>
