<svg width="64" height="64" viewBox="0 0 64 64" fill="none" xmlns="http://www.w3.org/2000/svg">
<path d="M12 14.6667H60V50.6667C60 53.612 57.612 56 54.6667 56H12V14.6667Z" fill="#6C19FF"/>
<path d="M54.6667 56H9.33333C6.388 56 4 53.612 4 50.6667V8H49.3333V50.6667C49.3333 53.612 51.7213 56 54.6667 56Z" fill="#3DD9EB"/>
<path d="M4 50.6667V14.6667H49.3333V50.6667C49.3333 53.612 51.7213 56 54.6667 56H9.33333C6.388 56 4 53.612 4 50.6667Z" fill="#00B3D7"/>
<path d="M44 20H9.33333V29.3333H44V20Z" fill="#3DD9EB"/>
<path d="M24 34.6667H9.33333V40H24V34.6667Z" fill="#3DD9EB"/>
<path d="M24 45.3333H9.33333V50.6667H24V45.3333Z" fill="#3DD9EB"/>
<path d="M44 34.6667H29.3333V40H44V34.6667Z" fill="#3DD9EB"/>
<path d="M44 45.3333H29.3333V50.6667H44V45.3333Z" fill="#3DD9EB"/>
</svg>
