<svg width="64" height="64" viewBox="0 0 64 64" fill="none" xmlns="http://www.w3.org/2000/svg">
<g clip-path="url(#clip0_3_1208)">
<path d="M64 56.8889C64 60.816 60.816 64 56.8889 64H7.11111C3.184 64 0 60.816 0 56.8889V7.11111C0 3.184 3.184 0 7.11111 0H56.8889C60.816 0 64 3.184 64 7.11111V56.8889Z" fill="#004A77"/>
<path d="M56.8889 42.592C59.6889 44.304 62.1458 45.5716 64 46.4516V42.7716C57.7156 39.5182 44.4676 31.2782 35.5556 16C35.5556 16 35.5556 12.4444 32 12.4444C28.4444 12.4444 28.4444 16 28.4444 16C19.5324 31.2782 6.28444 39.5182 0 42.7716V46.4516C1.85422 45.5716 4.31111 44.304 7.11111 42.592V48H0V55.1111H28.4444V64H35.5556V55.1111H64V48H56.8889V42.592ZM53.3333 48H46.2222V34.7822C48.6436 36.8907 51.0507 38.7182 53.3333 40.2844V48ZM10.6667 40.2827C12.9493 38.7182 15.3547 36.8907 17.7778 34.7822V48H10.6667V40.2827ZM21.3333 48V31.4809C23.7938 29.0364 26.2044 26.2844 28.4444 23.2053V48H21.3333ZM35.5556 23.2071C37.7956 26.2844 40.2062 29.0382 42.6667 31.4827V48H35.5556V23.2071Z" fill="#FE5011"/>
<path d="M11.5556 12.4444C9.10045 12.4444 7.11111 10.4551 7.11111 8C7.11111 5.99111 8.45334 4.31289 10.2827 3.76356C9.83645 3.64089 9.37422 3.55556 8.88889 3.55556C5.94311 3.55556 3.55556 5.94311 3.55556 8.88889C3.55556 11.8347 5.94311 14.2222 8.88889 14.2222C10.5938 14.2222 12.0942 13.408 13.072 12.1618C12.5956 12.3342 12.0907 12.4444 11.5556 12.4444Z" fill="white"/>
<path d="M18.6667 5.33334C19.1576 5.33334 19.5556 4.93537 19.5556 4.44445C19.5556 3.95353 19.1576 3.55556 18.6667 3.55556C18.1758 3.55556 17.7778 3.95353 17.7778 4.44445C17.7778 4.93537 18.1758 5.33334 18.6667 5.33334Z" fill="white"/>
<path d="M47.1111 21.3333C47.602 21.3333 48 20.9354 48 20.4444C48 19.9535 47.602 19.5556 47.1111 19.5556C46.6202 19.5556 46.2222 19.9535 46.2222 20.4444C46.2222 20.9354 46.6202 21.3333 47.1111 21.3333Z" fill="white"/>
<path d="M13.3333 21.3333C13.8243 21.3333 14.2222 20.9354 14.2222 20.4444C14.2222 19.9535 13.8243 19.5556 13.3333 19.5556C12.8424 19.5556 12.4444 19.9535 12.4444 20.4444C12.4444 20.9354 12.8424 21.3333 13.3333 21.3333Z" fill="white"/>
<path d="M39.1111 10.6667C40.0929 10.6667 40.8889 9.87073 40.8889 8.88889C40.8889 7.90705 40.0929 7.11111 39.1111 7.11111C38.1293 7.11111 37.3333 7.90705 37.3333 8.88889C37.3333 9.87073 38.1293 10.6667 39.1111 10.6667Z" fill="white"/>
<path d="M7.11111 32C8.09295 32 8.88888 31.2041 8.88888 30.2222C8.88888 29.2404 8.09295 28.4444 7.11111 28.4444C6.12927 28.4444 5.33333 29.2404 5.33333 30.2222C5.33333 31.2041 6.12927 32 7.11111 32Z" fill="white"/>
<path d="M21.3333 14.2222C22.3152 14.2222 23.1111 13.4263 23.1111 12.4444C23.1111 11.4626 22.3152 10.6667 21.3333 10.6667C20.3515 10.6667 19.5556 11.4626 19.5556 12.4444C19.5556 13.4263 20.3515 14.2222 21.3333 14.2222Z" fill="white"/>
<path d="M56.8889 32C57.8707 32 58.6667 31.2041 58.6667 30.2222C58.6667 29.2404 57.8707 28.4444 56.8889 28.4444C55.9071 28.4444 55.1111 29.2404 55.1111 30.2222C55.1111 31.2041 55.9071 32 56.8889 32Z" fill="white"/>
<path d="M47.1111 10.6667C47.602 10.6667 48 10.2687 48 9.77778C48 9.28686 47.602 8.88889 47.1111 8.88889C46.6202 8.88889 46.2222 9.28686 46.2222 9.77778C46.2222 10.2687 46.6202 10.6667 47.1111 10.6667Z" fill="white"/>
<path d="M55.1111 7.11111C56.0929 7.11111 56.8889 6.31517 56.8889 5.33334C56.8889 4.3515 56.0929 3.55556 55.1111 3.55556C54.1293 3.55556 53.3333 4.3515 53.3333 5.33334C53.3333 6.31517 54.1293 7.11111 55.1111 7.11111Z" fill="white"/>
<path d="M56 14.2222C56.4909 14.2222 56.8889 13.8243 56.8889 13.3333C56.8889 12.8424 56.4909 12.4444 56 12.4444C55.5091 12.4444 55.1111 12.8424 55.1111 13.3333C55.1111 13.8243 55.5091 14.2222 56 14.2222Z" fill="white"/>
</g>
<defs>
<clipPath id="clip0_3_1208">
<rect width="64" height="64" fill="white"/>
</clipPath>
</defs>
</svg>
