<svg width="64" height="64" viewBox="0 0 64 64" fill="none" xmlns="http://www.w3.org/2000/svg">
<g clip-path="url(#clip0_3_1202)">
<path d="M56.8889 0H7.11111C3.184 0 0 3.184 0 7.11111V46.2222H64V7.11111C64 3.184 60.816 0 56.8889 0Z" fill="#226699"/>
<path d="M17.7778 64V12.4444L24.8889 5.33333H28.4444L35.5555 12.4444V64H17.7778ZM58.6667 19.5556C58.6667 17.7778 56.8889 17.7778 56.8889 17.7778H44.4444C44.4444 17.7778 42.6667 17.7778 42.6667 19.5556V64H58.6667V19.5556Z" fill="#3F484C"/>
<path d="M49.7778 33.7778C49.7778 32 48 32 48 32H33.7778C32 32 32 33.7778 32 33.7778V64H49.7778V33.7778ZM19.5556 37.3333H10.6667V24.8889C10.6667 24.8889 10.6667 23.1111 8.88889 23.1111H0V56.8889C0 60.816 3.184 64 7.11111 64H21.3333V39.1111C21.3333 39.1111 21.3333 37.3333 19.5556 37.3333ZM56.8889 44.4444C55.1111 44.4444 55.1111 46.2222 55.1111 46.2222V64H56.8889C60.816 64 64 60.816 64 56.8889V44.4444H56.8889Z" fill="#292F33"/>
<path d="M14.2222 55.1111H17.7778V58.6667H14.2222V55.1111ZM14.2222 40.8889H17.7778V44.4444H14.2222V40.8889ZM10.6667 48H14.2222V51.5556H10.6667V48ZM28.4444 16H32V19.5556H28.4444V16ZM28.4444 23.1111H32V26.6667H28.4444V23.1111ZM24.8889 30.2222H28.4444V33.7778H24.8889V30.2222ZM42.6667 35.5556H46.2222V39.1111H42.6667V35.5556ZM39.1111 42.6667H42.6667V46.2222H39.1111V42.6667ZM35.5556 53.3333H39.1111V56.8889H35.5556V53.3333ZM51.5556 21.3333H55.1111V24.8889H51.5556V21.3333ZM51.5556 28.4444H55.1111V32H51.5556V28.4444Z" fill="#FFCC4D"/>
<path d="M18.6667 5.33334C19.1576 5.33334 19.5556 4.93537 19.5556 4.44445C19.5556 3.95353 19.1576 3.55556 18.6667 3.55556C18.1758 3.55556 17.7778 3.95353 17.7778 4.44445C17.7778 4.93537 18.1758 5.33334 18.6667 5.33334Z" fill="white"/>
<path d="M13.3333 21.3333C13.8243 21.3333 14.2222 20.9354 14.2222 20.4444C14.2222 19.9535 13.8243 19.5556 13.3333 19.5556C12.8424 19.5556 12.4444 19.9535 12.4444 20.4444C12.4444 20.9354 12.8424 21.3333 13.3333 21.3333Z" fill="white"/>
<path d="M39.1111 10.6667C40.0929 10.6667 40.8889 9.87073 40.8889 8.88889C40.8889 7.90705 40.0929 7.11111 39.1111 7.11111C38.1293 7.11111 37.3333 7.90705 37.3333 8.88889C37.3333 9.87073 38.1293 10.6667 39.1111 10.6667Z" fill="white"/>
<path d="M47.1111 10.6667C47.602 10.6667 48 10.2687 48 9.77777C48 9.28685 47.602 8.88889 47.1111 8.88889C46.6202 8.88889 46.2222 9.28685 46.2222 9.77777C46.2222 10.2687 46.6202 10.6667 47.1111 10.6667Z" fill="white"/>
<path d="M55.1111 7.11111C56.0929 7.11111 56.8889 6.31517 56.8889 5.33334C56.8889 4.3515 56.0929 3.55556 55.1111 3.55556C54.1293 3.55556 53.3333 4.3515 53.3333 5.33334C53.3333 6.31517 54.1293 7.11111 55.1111 7.11111Z" fill="white"/>
<path d="M56 14.2222C56.4909 14.2222 56.8889 13.8243 56.8889 13.3333C56.8889 12.8424 56.4909 12.4444 56 12.4444C55.5091 12.4444 55.1111 12.8424 55.1111 13.3333C55.1111 13.8243 55.5091 14.2222 56 14.2222Z" fill="white"/>
<path d="M11.5556 12.4444C9.10045 12.4444 7.11111 10.4551 7.11111 8C7.11111 5.99111 8.45334 4.31289 10.2827 3.76356C9.83645 3.64089 9.37422 3.55556 8.88889 3.55556C5.94311 3.55556 3.55556 5.94311 3.55556 8.88889C3.55556 11.8347 5.94311 14.2222 8.88889 14.2222C10.5938 14.2222 12.0942 13.408 13.072 12.1618C12.5956 12.3342 12.0907 12.4444 11.5556 12.4444Z" fill="white"/>
</g>
<defs>
<clipPath id="clip0_3_1202">
<rect width="64" height="64" fill="white"/>
</clipPath>
</defs>
</svg>
