<svg width="64" height="64" viewBox="0 0 64 64" fill="none" xmlns="http://www.w3.org/2000/svg">
<path d="M56.8889 0H7.11111C3.184 0 0 3.184 0 7.11111V56.8889H64V7.11111C64 3.184 60.816 0 56.8889 0Z" fill="#FFCC4D"/>
<path d="M57.0916 29.7529C59.9129 28.9511 59.9129 27.7138 57.0933 26.9102L56.0996 26.6364L55.1111 26.3467V26.3556L49.8844 24.7716L54.0142 21.3333H53.9893L54.8658 20.7609L55.7493 20.1227C58.0444 18.304 57.5413 17.1253 54.6311 17.4596L53.5005 17.6178L52.3769 17.7778H52.3733L47.0773 18.3804L50.224 12.7271L50.7733 11.7351C52.1991 9.17511 51.2729 8.24533 48.7147 9.66755L47.7227 10.1689L46.7342 10.6667H46.7307L42.0622 13.3138L42.6667 8.07466V8.06933L42.8089 6.94577L42.9458 5.81155C43.28 2.90666 42.0711 2.40711 40.2507 4.704L39.5502 5.59111L35.5378 10.6596L34.0818 5.53777L34.0782 5.52889L33.4596 3.35111C32.6578 0.529774 31.344 0.529774 30.5405 3.35111L30.2311 4.43911L29.9218 5.52889L28.4622 10.6596L25.1538 6.48177L25.152 6.48L24.4498 5.59289L23.744 4.70222C21.9253 2.40889 20.7147 2.912 21.0507 5.82044L21.1822 6.94755L21.312 8.07111V8.07289L21.9271 13.3689L16.2791 10.2222L15.2889 9.66933C12.7271 8.24355 11.7991 9.17155 13.2249 11.7333L13.776 12.7218L16.9227 18.3698L11.6267 17.7547H11.6249L10.5013 17.6249L9.37245 17.4933C6.46401 17.1573 5.96267 18.368 8.25423 20.1867L9.14489 20.8924L10.032 21.5947L10.0338 21.5964L14.2116 24.9049L9.08445 26.3662L7.99645 26.6756L6.90845 26.9849C4.08712 27.7884 4.08712 29.1004 6.90845 29.904L9.08623 30.5227L9.09334 30.5262L14.2151 31.9822L9.14667 35.9964L8.25956 36.7004C5.96267 38.5191 6.46223 39.7316 9.36712 39.3973L10.5013 39.2551L11.6249 39.1111H11.6284L16.8693 38.5067L14.2222 43.1751V43.1787L13.7245 44.1671L13.1982 45.1609C11.776 47.7209 12.7165 48.6453 15.2765 47.2196L16.272 46.6702L21.9342 43.5236L21.3333 48.8178V48.8213L21.1911 49.9449L21.0542 51.0738C20.7182 53.984 21.9271 54.4836 23.7458 52.1884L24.4498 51.2996L25.152 50.4107L28.4622 46.2293L29.92 51.3582V51.36L30.2293 52.448L30.5405 53.5378C31.344 56.3573 32.5049 56.3573 33.3085 53.536L33.7778 51.36V51.3529L35.3867 46.2293L38.7733 50.4107L39.5129 51.2996L40.2365 52.1884C42.0533 54.4818 43.2765 53.984 42.9404 51.0773L42.8018 49.9449L42.6667 48.8196V48.8142L42.0622 43.5751L46.7271 46.2222H46.7307L47.7209 46.72L48.7129 47.2444C51.2729 48.672 52.2027 47.7298 50.7751 45.1698L50.2773 44.1742L49.7778 43.1822V43.1787L47.1307 38.5067L52.3698 39.1111H52.3751L53.5005 39.2533L54.6329 39.3902C57.5396 39.7244 58.0373 38.5156 55.744 36.6969L54.8551 35.9947L53.9662 35.2924L49.7849 31.8311L54.9085 30.2222H54.9156L57.0916 29.7529Z" fill="#F4900C"/>
<path d="M32 45.5644C41.4551 45.5644 49.12 37.8996 49.12 28.4444C49.12 18.9893 41.4551 11.3244 32 11.3244C22.5449 11.3244 14.88 18.9893 14.88 28.4444C14.88 37.8996 22.5449 45.5644 32 45.5644Z" fill="#FFE8B6"/>
<path d="M17.7778 64V26.6667L24.8889 19.5556H28.4444L35.5555 26.6667V64H17.7778ZM58.6667 33.7778C58.6667 32 56.8889 32 56.8889 32H44.4444C44.4444 32 42.6667 32 42.6667 33.7778V64H58.6667V33.7778Z" fill="#485359"/>
<path d="M49.7778 44.4444C49.7778 42.6667 48 42.6667 48 42.6667H33.7778C32 42.6667 32 44.4444 32 44.4444V64H49.7778V44.4444ZM19.5556 48H10.6667V39.1111C10.6667 39.1111 10.6667 37.3333 8.88889 37.3333H0V56.8889C0 60.816 3.184 64 7.11111 64H21.3333V49.7778C21.3333 49.7778 21.3333 48 19.5556 48ZM56.8889 55.1111C55.1111 55.1111 55.1111 56.8889 55.1111 56.8889V64H56.8889C60.816 64 64 60.816 64 56.8889V55.1111H56.8889Z" fill="#292F33"/>
<path d="M14.2222 51.5556H17.7778V55.1111H14.2222V51.5556ZM10.6667 58.6667H14.2222V62.2222H10.6667V58.6667ZM28.4444 30.2222H32V33.7778H28.4444V30.2222ZM28.4444 37.3333H32V40.8889H28.4444V37.3333ZM24.8889 44.4444H28.4444V48H24.8889V44.4444ZM42.6667 46.2222H46.2222V49.7778H42.6667V46.2222ZM39.1111 53.3333H42.6667V56.8889H39.1111V53.3333ZM51.5555 35.5556H55.1111V39.1111H51.5555V35.5556ZM51.5555 42.6667H55.1111V46.2222H51.5555V42.6667Z" fill="#FFCC4D"/>
</svg>
