<svg width="64" height="64" viewBox="0 0 64 64" fill="none" xmlns="http://www.w3.org/2000/svg">
<g clip-path="url(#clip0_3_1207)">
<path d="M64 1.77777C28.6542 1.77777 1.77777 28.6542 1.77777 64H32.0747C32.0747 46.3698 46.3715 32.0747 64 32.0747V1.77777Z" fill="#8767AC"/>
<path d="M0 63.9982H5.408C5.408 31.6622 31.6018 5.44711 63.9271 5.408V0C28.6133 0.0408889 0 28.6773 0 63.9982Z" fill="#EB2027"/>
<path d="M5.4809 64H10.8142C10.8142 34.6098 34.6187 10.7822 64 10.7431V5.40977C31.6747 5.44889 5.4809 31.664 5.4809 64Z" fill="#F19020"/>
<path d="M10.8142 64H16.1475C16.1475 37.5555 37.5644 16.1155 64 16.0764V10.7431C34.6187 10.7822 10.8142 34.6098 10.8142 64Z" fill="#FFCB4C"/>
<path d="M16.1476 64H21.4809C21.4809 40.5031 40.512 21.4489 64 21.4098V16.0764C37.5645 16.1156 16.1476 37.5556 16.1476 64Z" fill="#5C903F"/>
<path d="M21.4809 64H26.8142C26.8142 43.4489 43.4578 26.784 64 26.7449V21.4098C40.512 21.4489 21.4809 40.5031 21.4809 64Z" fill="#226798"/>
</g>
<defs>
<clipPath id="clip0_3_1207">
<rect width="64" height="64" fill="white"/>
</clipPath>
</defs>
</svg>
