<svg width="64" height="64" viewBox="0 0 64 64" fill="none" xmlns="http://www.w3.org/2000/svg">
<path d="M56.8889 0H7.11111C3.184 0 0 3.184 0 7.11111V55.1111H64V7.11111C64 3.184 60.816 0 56.8889 0Z" fill="#FFCC4D"/>
<path d="M57.0916 33.3084C59.9129 32.5067 59.9129 31.2693 57.0933 30.4658L56.0996 30.192L55.1111 29.9022V29.9111L49.8845 28.3271L54.0142 24.8889H53.9893L54.8658 24.3164L55.7493 23.6782C58.0445 21.8596 57.5413 20.6809 54.6311 21.0151L53.5005 21.1733L52.3769 21.3333H52.3733L47.0773 21.936L50.224 16.2827L50.7733 15.2907C52.1991 12.7307 51.2729 11.8009 48.7147 13.2231L47.7227 13.7244L46.7342 14.2222H46.7307L42.0622 16.8693L42.6667 11.632V11.6267L42.8089 10.5031L42.9458 9.36889C43.28 6.464 42.0711 5.96444 40.2507 8.26133L39.5502 9.14844L35.5378 14.2151L34.0818 9.09333L34.0782 9.08444L33.4596 6.90666C32.6578 4.08533 31.344 4.08533 30.5405 6.90666L30.2311 7.99467L29.9218 9.08444L28.4622 14.2151L25.1538 10.0373L25.152 10.0356L24.4498 9.14844L23.744 8.25778C21.9253 5.96444 20.7147 6.46755 21.0507 9.376L21.1822 10.5031L21.312 11.6267V11.6284L21.9271 16.9244L16.2791 13.7778L15.2889 13.2267C12.7271 11.7991 11.7991 12.7271 13.2249 15.2889L13.776 16.2773L16.9227 21.9253L11.6267 21.3102H11.6249L10.5013 21.1804L9.37245 21.0489C6.46401 20.7129 5.96267 21.9236 8.25423 23.7422L9.14489 24.448L10.032 25.1502L10.0338 25.152L14.2116 28.4604L9.08445 29.9218L7.99645 30.2311L6.90845 30.5404C4.08712 31.344 4.08712 32.656 6.90845 33.4596L9.08623 34.0782L9.09334 34.0818L14.2151 35.5378L9.14667 39.552L8.25956 40.256C5.96267 42.0747 6.46223 43.2871 9.36712 42.9529L10.5013 42.8107L11.6249 42.6667H11.6285L16.8693 42.0622L14.2222 46.7307V46.7342L13.7245 47.7227L13.1982 48.7147C11.776 51.2747 12.7165 52.1991 15.2765 50.7733L16.272 50.224L21.9342 47.0773L21.3333 52.3733V52.3769L21.1911 53.5004L21.0542 54.6293C20.7182 57.5396 21.9271 58.0391 23.7458 55.744L24.4498 54.8551L25.152 53.9662L28.4622 49.7849L29.92 54.9138V54.9156L30.2293 56.0036L30.5405 57.0933C31.344 59.9129 32.5049 59.9129 33.3085 57.0916L33.7778 54.9156V54.9084L35.3867 49.7849L38.7733 53.9662L39.5129 54.8551L40.2365 55.744C42.0533 58.0373 43.2765 57.5396 42.9405 54.6329L42.8018 53.5004L42.6667 52.3751V52.3698L42.0622 47.1307L46.7271 49.7778H46.7307L47.7209 50.2756L48.7129 50.8C51.2729 52.2276 52.2027 51.2836 50.7751 48.7253L50.2773 47.728L49.7778 46.7378V46.7342L47.1307 42.0622L52.3698 42.6667H52.3751L53.5005 42.8089L54.6329 42.9458C57.5396 43.2818 58.0373 42.0711 55.744 40.2524L54.8551 39.5484L53.9662 38.8462L49.7849 35.3849L54.9085 33.7778H54.9156L57.0916 33.3084Z" fill="#F4900C"/>
<path d="M32 49.12C41.4551 49.12 49.12 41.4551 49.12 32C49.12 22.5449 41.4551 14.88 32 14.88C22.5449 14.88 14.88 22.5449 14.88 32C14.88 41.4551 22.5449 49.12 32 49.12Z" fill="#FFE8B6"/>
<path d="M64 56.8889V48.464C58.8693 41.6853 49.4542 30.2222 44.4445 30.2222C39.6836 30.2222 30.944 40.5742 25.6836 47.4222V64H56.8889C60.816 64 64 60.816 64 56.8889Z" fill="#5C913B"/>
<path d="M16 40.8889C12.0018 40.8889 5.19467 48.1938 0 54.5902V56.8889C0 60.816 3.184 64 7.11111 64H39.1111C39.1111 64 32.3627 54.256 25.6836 47.4222C22.0782 43.7333 18.4924 40.8889 16 40.8889Z" fill="#3E721D"/>
</svg>
