<svg width="64" height="64" viewBox="0 0 64 64" fill="none" xmlns="http://www.w3.org/2000/svg">
<path d="M26.6667 58.6667C38.4487 58.6667 48 49.1154 48 37.3333C48 25.5513 38.4487 16 26.6667 16C14.8846 16 5.33333 25.5513 5.33333 37.3333C5.33333 49.1154 14.8846 58.6667 26.6667 58.6667Z" fill="#3DDAB4"/>
<path d="M42.112 41.236C52.0156 41.236 60.044 33.2076 60.044 23.304C60.044 13.4004 52.0156 5.37201 42.112 5.37201C32.2084 5.37201 24.18 13.4004 24.18 23.304C24.18 33.2076 32.2084 41.236 42.112 41.236Z" fill="#F5BC00"/>
<path d="M5.42667 58.6667H26.5453L14.5627 47.3987L5.42667 58.6667Z" fill="#3DDAB4"/>
<path d="M26.6667 16C26.348 16 26.0387 16.0333 25.7227 16.048C24.7373 18.268 24.18 20.72 24.18 23.3053C24.18 33.2093 32.208 41.2373 42.112 41.2373C44.0907 41.2373 45.988 40.904 47.768 40.3133C47.9053 39.336 48 38.3467 48 37.3333C48 25.5507 38.4493 16 26.6667 16Z" fill="#00B569"/>
<path d="M59.9667 5.37201H42.2147L52.2867 14.844L59.9667 5.37201Z" fill="#F5BC00"/>
</svg>
