<svg width="64" height="64" viewBox="0 0 64 64" fill="none" xmlns="http://www.w3.org/2000/svg">
<path d="M62.2222 62.2222C64 60.4444 62.2222 58.6667 62.2222 58.6667L16 12.4444C16 12.4444 13.3707 9.74045 16 7.11111C18.6293 4.48178 21.3333 7.11111 21.3333 7.11111C21.3333 7.11111 23.1111 8.88889 24.8889 7.11111C26.6667 5.33333 24.8889 3.55556 24.8889 3.55556C24.8889 3.55556 18.6293 -2.62933 12.4444 3.55556C6.22222 9.77778 12.4444 16 12.4444 16L58.6667 62.2222C58.6667 62.2222 60.4444 64 62.2222 62.2222Z" fill="#66757F"/>
<path d="M13.0969 32.1813L16 31.216V28.4444C16 26.8124 17.1111 25.3902 18.6933 24.9956L23.7351 23.7351L24.9956 18.6933C25.3902 17.1111 26.8124 16 28.4444 16H31.216L32.1831 13.0987C32.6382 11.7333 33.8702 10.7787 35.3049 10.6756C35.3884 10.6684 35.472 10.6667 35.5556 10.6667C36.8942 10.6667 38.1298 11.4222 38.736 12.6311L60.4444 56.8889L56.8889 60.4444L12.6329 38.736C11.3458 38.0924 10.5742 36.7378 10.6756 35.3031C10.7769 33.8702 11.7351 32.6364 13.0969 32.1813Z" fill="#9266CC"/>
<path d="M58.6667 58.6667L23.7351 23.7351L24.9956 18.6933C25.3902 17.1111 26.8124 16 28.4444 16H31.216L31.3067 15.7262L59.7262 57.6071L58.6667 58.6667ZM56.8889 60.4444L12.6329 38.736C11.3458 38.0924 10.5742 36.7378 10.6756 35.3031C10.7787 33.8684 11.7351 32.6364 13.0969 32.1813L16 31.216V30.9067L57.616 59.7173L56.8889 60.4444Z" fill="#744EAA"/>
</svg>
