<svg width="64" height="64" viewBox="0 0 64 64" fill="none" xmlns="http://www.w3.org/2000/svg">
<path d="M38.8619 36.8049L27.1949 25.1374L1.91487 50.4165L13.5819 62.084L38.8619 36.8049Z" fill="#6C19FF"/>
<path d="M46.0707 27.652L36.348 17.9293L47.6107 6.66666C41.1587 4.02133 33.4693 5.31466 28.2293 10.5547C21.2667 17.5173 21.2667 28.808 28.2293 35.7707C35.192 42.7333 46.4827 42.7333 53.4453 35.7707C58.6853 30.5307 59.9787 22.8427 57.3333 16.3893L46.0707 27.652Z" fill="#3DD9EB"/>
<path d="M23.8333 28.4987C24.6653 31.1573 26.124 33.6627 28.2307 35.7693C30.3373 37.876 32.8427 39.3347 35.5013 40.1667L38.8627 36.8053L27.196 25.1387L23.8333 28.4987Z" fill="#00B3D7"/>
</svg>
